<svg id="Layer_1" data-name="Layer 1" xmlns="http://www.w3.org/2000/svg" viewBox="0 0 510.23616 510.23627"><defs><style>.cls-1{fill:#044da2;}.cls-1,.cls-3,.cls-4{fill-rule:evenodd;}.cls-2{fill:#fefefe;}.cls-3{fill:#f29449;}.cls-4{fill:#ed1b23;}</style></defs><path class="cls-1" d="M298,165.38187c140.91021,0,255.11807,114.23626,255.11807,255.11813,0,140.91025-114.20786,255.11813-255.11807,255.11813-140.88188,0-255.11809-114.20788-255.11809-255.11813,0-140.88187,114.23621-255.11813,255.11809-255.11813Z" transform="translate(-42.88192 -165.38187)"/><path class="cls-2" d="M181.26931,581.47955l3.31653,2.211-3.515,5.24408a2.65051,2.65051,0,0,0-.4252,2.211,3.36385,3.36385,0,0,0,1.50237,1.9559l4.90393,3.25986-2.04094,3.0614-4.79056-3.20315a2.38019,2.38019,0,0,0-1.72912-.42521,2.1642,2.1642,0,0,0-1.61576.99213,2.4203,2.4203,0,0,0-.39685,1.67246,1.97882,1.97882,0,0,0,.87874,1.33227l5.10237,3.42993-2.04095,3.0614-5.15906-3.45825a6.21658,6.21658,0,0,1-2.7496-3.65671,5.51754,5.51754,0,0,1,.90708-4.7055,4.63536,4.63536,0,0,1,3.88347-2.04092,4.402,4.402,0,0,1-.652-2.66459,5.7632,5.7632,0,0,1,1.02047-2.91967Zm-14.54173-11.537,3.1748,2.60788-8.56063,10.45983a4.28645,4.28645,0,0,0-1.02048,3.11811,3.48232,3.48232,0,0,0,1.30394,2.57953,3.55564,3.55564,0,0,0,2.74961.822,4.667,4.667,0,0,0,3.08976-1.84253l8.39054-10.26142,3.17481,2.57953-8.07874,9.89292a8.72211,8.72211,0,0,1-5.9811,3.37323,7.6814,7.6814,0,0,1-5.69764-1.70078A7.48968,7.48968,0,0,1,156.5512,586.1a8.27224,8.27224,0,0,1,1.92756-6.09449Zm-16.75276,2.09762,3.25984,2.97638,8.61732-9.55273,2.74961,2.49447-14.14488,15.64725-2.7496-2.49448,3.06141-3.37323-3.25984-2.948ZM131.7764,559.39764l2.211,2.40946,6.88819-6.32126a8.14447,8.14447,0,0,1,6.00944-2.211,7.64259,7.64259,0,0,1,5.69764,2.52286,7.725,7.725,0,0,1,2.09764,5.66928,8.61117,8.61117,0,0,1-3.00473,6.17953l-9.411,8.61731-2.83465-3.08975,9.77952-8.95749a4.50329,4.50329,0,0,0,1.6441-3.20315,3.68269,3.68269,0,0,0-.99213-2.74961,3.78492,3.78492,0,0,0-2.69291-1.19055,4.22871,4.22871,0,0,0-3.06142,1.19055l-9.97795,9.12757-5.04567-5.52756Zm.51024-25.88031,4.3937.45356-.53859,3.9118a7.55713,7.55713,0,0,1,1.78582.99213,7.27322,7.27322,0,0,1,1.55906,1.5307,7.66162,7.66162,0,0,1,1.44567,5.78268,8.23908,8.23908,0,0,1-3.37323,5.641l-10.40315,7.852-2.46614-3.25986,10.82835-8.16375a4.22133,4.22133,0,0,0,1.72913-2.72129,3.721,3.721,0,0,0-.68031-2.89132,3.60216,3.60216,0,0,0-2.60787-1.41733,4.11878,4.11878,0,0,0-3.08977.8504L120.041,550.24176l-2.46615-3.25986,10.45985-7.88031a7.79308,7.79308,0,0,1,1.87086-1.07718,9.30221,9.30221,0,0,1,1.87087-.53857Zm-15.64725-12.24566a8.07809,8.07809,0,0,1,6.37795-1.04883,7.63083,7.63083,0,0,1,4.989,3.57165,7.75832,7.75832,0,0,1,.85039,5.89609,7.8687,7.8687,0,0,1-3.77008,5.35745l-8.022,4.904,1.27559,2.09762-3.14646,1.92755-3.45826-5.66928,11.39527-6.94488a4.63755,4.63755,0,0,0,2.15433-2.74961,3.70954,3.70954,0,0,0-.39685-2.91967,3.63574,3.63574,0,0,0-2.43779-1.72916,4.63243,4.63243,0,0,0-3.40158.737l-3.03307,1.8425-2.18268-3.57166Zm-5.86772-18.28348,1.81418,3.71341-2.948,1.41733a4.65776,4.65776,0,0,0-2.18268,2.18264,3.48365,3.48365,0,0,0,0,3.17481,3.38509,3.38509,0,0,0,2.3811,1.89923,4.73555,4.73555,0,0,0,3.40158-.45355l7.2-3.4866,1.78583,3.685-18.96378,9.21262L101.474,520.648l5.35748-2.60788a6.41,6.41,0,0,1-1.55906-1.36063,8.2772,8.2772,0,0,1-1.07716-1.5874,7.28064,7.28064,0,0,1-.19843-6.2362,8.70865,8.70865,0,0,1,4.50709-4.76221Zm-7.852-16.49762a5.89748,5.89748,0,0,1,5.074.34015,9.06421,9.06421,0,0,1,3.96851,5.04568,8.65548,8.65548,0,0,1,.17008,6.29291,6.57321,6.57321,0,0,1-4.11024,3.96851l-1.78583-3.54331a4.68258,4.68258,0,0,0,2.29606-2.26773,4.74814,4.74814,0,0,0-.22677-3.31653,4.48628,4.48628,0,0,0-1.78582-2.4378,2.22122,2.22122,0,0,0-2.09764-.22678,2.00386,2.00386,0,0,0-1.30394,1.389,11.37124,11.37124,0,0,0,.085,4.02521,10.496,10.496,0,0,1-.45354,5.89605,5.07964,5.07964,0,0,1-3.03307,2.83466,5.25652,5.25652,0,0,1-4.73386-.3685A10.05575,10.05575,0,0,1,91.12758,493.804a6.56237,6.56237,0,0,1,3.685-3.71338L96.4,493.86066a2.47249,2.47249,0,0,0-1.72913,1.98425,4.98241,4.98241,0,0,0,.34016,2.55118,4.37176,4.37176,0,0,0,1.50236,2.126,1.71087,1.71087,0,0,0,1.67244.34015,1.50487,1.50487,0,0,0,.96378-1.19055,9.50257,9.50257,0,0,0-.085-3.0614c-.4252-3.23151-.28346-5.641.4252-7.2a5.77765,5.77765,0,0,1,3.42992-2.91968Zm-1.04882-21.23151,3.88346,2.09766-1.98425,3.40155a7.64935,7.64935,0,0,1,1.27559,1.61575,7.27383,7.27383,0,0,1,.8504,2.01261,7.43684,7.43684,0,0,1-.8504,5.8677,8.199,8.199,0,0,1-5.27244,3.96851l-12.58582,3.28821-1.04882-3.96851,13.09606-3.42993a4.37435,4.37435,0,0,0,2.66456-1.84253,3.6802,3.6802,0,0,0,.45355-2.91968,3.54947,3.54947,0,0,0-1.87087-2.3244,3.98165,3.98165,0,0,0-3.1748-.3685L84.1827,476.0874l-1.02047-3.9685,12.67086-3.31653a7.77768,7.77768,0,0,1,2.09764-.28345,8.60319,8.60319,0,0,1,1.95591.22678Zm-12.8126-15.27874.8504,4.0252-2.778.59528a4.34447,4.34447,0,0,0-2.63622,1.55905,3.40812,3.40812,0,0,0-.76535,3.08975,3.46543,3.46543,0,0,0,1.81417,2.43781,4.96614,4.96614,0,0,0,3.42992.3685l12.926-2.6929.822,3.99685-12.41574,2.60788a8.88706,8.88706,0,0,1-6.60473-.9638,7.65072,7.65072,0,0,1-2.26771-11.08347,9.00761,9.00761,0,0,1,5.5559-3.51495ZM96.23,419.42285l3.37322,2.83463-2.60787,2.94806a7.97082,7.97082,0,0,1,.90708,1.84249,7.14231,7.14231,0,0,1,.45355,2.126,7.50308,7.50308,0,0,1-2.04095,5.58426,8.14366,8.14366,0,0,1-5.92441,2.80631l-13.011.737-.22677-4.11022,13.52126-.737a4.18846,4.18846,0,0,0,2.97638-1.27561,3.66075,3.66075,0,0,0,1.02047-2.778,3.61567,3.61567,0,0,0-1.36063-2.6362,4.194,4.194,0,0,0-3.06142-1.02048l-13.52126.737-.22676-4.08188,13.096-.70868a7.53657,7.53657,0,0,1,2.126.14176,9.34435,9.34435,0,0,1,1.84252.59527Zm2.04094-17.5748-.19843,4.11023-6.20787-.28348a4.39451,4.39451,0,0,1,1.24724,1.95591,5.73832,5.73832,0,0,1,.25512,1.92755,7.41713,7.41713,0,0,1-2.8063,5.55591,8.92829,8.92829,0,0,1-6.26456,2.01263l-7.82362-.36853.19842-4.11023,8.10709.3685a5.26717,5.26717,0,0,0,3.1748-.85037,3.40418,3.40418,0,0,0,1.72913-2.778,3.35065,3.35065,0,0,0-1.1622-2.778,4.95065,4.95065,0,0,0-3.20315-1.24725l-3.00472-.11341.19842-4.13855Zm1.53071-20.69293,2.72126,3.45825-3.11811,2.35279a8.785,8.785,0,0,1,.51023,1.98425,8.06857,8.06857,0,0,1,.02835,2.18268,7.67458,7.67458,0,0,1-3.11811,5.074,8.20137,8.20137,0,0,1-6.37795,1.55905l-12.89764-1.8992.59528-4.05355,13.40787,1.98425a4.33016,4.33016,0,0,0,3.1748-.6803,3.63708,3.63708,0,0,0,.737-5.35748,4.04628,4.04628,0,0,0-2.778-1.58741L79.27877,384.1882l.59527-4.05353,12.95433,1.89917a7.96793,7.96793,0,0,1,2.06929.59528,8.26851,8.26851,0,0,1,1.70079.96381Zm-2.23937-19.75748a8.11513,8.11513,0,0,1,5.1874,3.82676,7.72958,7.72958,0,0,1-2.66457,10.8,8.09865,8.09865,0,0,1-6.49133,1.04883l-9.12756-2.296-.59528,2.35272-3.57165-.87872,1.64409-6.43463,12.926,3.25983a4.512,4.512,0,0,0,3.45826-.39686,3.56492,3.56492,0,0,0,1.81418-2.29608,3.69408,3.69408,0,0,0-.45355-2.948,4.75138,4.75138,0,0,0-2.91968-1.92759l-3.42992-.87875,1.02047-4.05353Zm13.06771-17.51809,1.98426,3.94012-3.54331,1.67246a6.9766,6.9766,0,0,1,.11338,2.0693,6.75412,6.75412,0,0,1-.42519,2.126,7.42889,7.42889,0,0,1-4.05354,4.337,8.09363,8.09363,0,0,1-6.548.28348l-12.24566-4.45041,1.389-3.82675,12.72756,4.5921a4.11488,4.11488,0,0,0,3.23149-.02832,3.59433,3.59433,0,0,0,2.04095-2.126,3.66088,3.66088,0,0,0-.22677-2.97638,4.07454,4.07454,0,0,0-2.40945-2.126L89.90869,342.774l1.389-3.85511,12.33071,4.45038a7.96807,7.96807,0,0,1,1.89921.96378,8.21844,8.21844,0,0,1,1.474,1.30392Zm-5.32913-18.42523a3.97563,3.97563,0,0,0-3.28819-.22675,4.49444,4.49444,0,0,0-2.49449,5.21576,4.01167,4.01167,0,0,0,2.26772,2.40942c.085.02835.22677.08506.45354.17011.19843.05667.34016.11337.45355.14172l-1.16221,4.02521a1.355,1.355,0,0,1-.51023-.17011c-.17008-.0567-.36851-.14172-.56693-.22674l-.36851-.19843a7.42357,7.42357,0,0,1-4.19527-4.67718,9.05915,9.05915,0,0,1,4.96063-10.43152,7.17927,7.17927,0,0,1,6.17952.22681,12.903,12.903,0,0,1,3.82677,2.83465,11.41573,11.41573,0,0,1,2.49449,3.71338c.11339.28345.22677.6236.3685,1.0488a5.64106,5.64106,0,0,1,.22678,1.1622l2.126-4.45038,3.31654,1.5874-7.08662,14.8252-4.73385-2.2677,1.75747-3.71341,1.53071.737a7.11452,7.11452,0,0,0,.53858-5.18744,9.24468,9.24468,0,0,0-2.52282-4.02518,12.57336,12.57336,0,0,0-3.57166-2.52285ZM118,304.19449l-6.548,10.885,4.13859,2.49451a4.34673,4.34673,0,0,0,3.14645.62365,3.52336,3.52336,0,0,0,2.49448-1.7575,3.6857,3.6857,0,0,0,.36851-2.863,4.32985,4.32985,0,0,0-2.04095-2.60791l-2.15432-1.3039,2.15432-3.54333,2.01261,1.21893a8.1393,8.1393,0,0,1,3.9685,5.30078,7.60468,7.60468,0,0,1-5.726,9.46772,8.50113,8.50113,0,0,1-6.51968-1.10553l-11.05512-6.66138,2.126-3.515,3.91181,2.35278,6.57637-10.88507Zm12.75591-14.31494-2.46614,3.28821-2.26773-1.67249a4.52507,4.52507,0,0,0-2.91967-.96375,3.58369,3.58369,0,0,0-2.83465,1.474,3.50087,3.50087,0,0,0-.59528,2.97638,4.83286,4.83286,0,0,0,1.98425,2.83466l10.57323,7.88031-2.4378,3.28815-10.17637-7.56849a8.96779,8.96779,0,0,1-3.65669-5.58422,7.31521,7.31521,0,0,1,1.36063-6.00946,7.22663,7.22663,0,0,1,5.41417-3.03309,8.75431,8.75431,0,0,1,6.32126,1.81415Zm7.51181-23.55591,1.9559,3.45825c-.02834.02832-.62362.28345-1.81417.822a10.45463,10.45463,0,0,0-1.474.82208c-.45354.31183-.87874.6236-1.24724.907a8.77511,8.77511,0,0,0-.87874.7937,3.036,3.036,0,0,0-.4252.62366q-.17008.42516-.25512.59527a12.70915,12.70915,0,0,1,1.44567-.9638,8.3611,8.3611,0,0,1,1.95591-.93543,8.50686,8.50686,0,0,1,4.45039-.1134,10.12813,10.12813,0,0,1,4.16693,2.3811,9.50006,9.50006,0,0,1,3.2315,5.89612,9.20688,9.20688,0,0,1-8.92914,9.77948,9.2528,9.2528,0,0,1-6.32126-2.60785,11.3913,11.3913,0,0,1-2.29606-2.91968,9.60646,9.60646,0,0,1-1.19055-3.40161l-1.9559,2.15436-3.96851-3.6,2.7496-3.03308,1.24725,1.13385c.17008-.19842.45354-.51025.822-.87872l.70867-.70868a14.13089,14.13089,0,0,1,.96377-3.40161,11.30488,11.30488,0,0,1,1.98426-3.08972,15.46089,15.46089,0,0,1,2.23937-2.041,16.23324,16.23324,0,0,1,2.83465-1.67242Zm5.10235,11.48028a6.07246,6.07246,0,0,0-4.989-1.61572,7.97738,7.97738,0,0,0-4.4504,2.06928,7.73433,7.73433,0,0,0,.76536,3.45825,9.10963,9.10963,0,0,0,2.211,3.03308,6.0549,6.0549,0,0,0,3.6567,1.70081,4.38324,4.38324,0,0,0,3.685-1.55909,4.2442,4.2442,0,0,0,1.19054-3.51495,5.94462,5.94462,0,0,0-2.06929-3.57166Zm13.748-25.54016-2.40945,2.21106,6.32126,6.88819a8.335,8.335,0,0,1,2.211,6.00946,7.62689,7.62689,0,0,1-2.52284,5.66925,7.7487,7.7487,0,0,1-5.66929,2.126,8.56129,8.56129,0,0,1-6.17952-3.0047l-8.64567-9.411,3.08976-2.83465,8.95748,9.77954a4.55564,4.55564,0,0,0,3.20315,1.6441,3.64314,3.64314,0,0,0,2.74961-.99218,3.57262,3.57262,0,0,0,1.19055-2.69288,4.15181,4.15181,0,0,0-1.16221-3.08978l-9.12755-9.94958,5.49921-5.074Zm25.85195.48188-.45353,4.39373-3.91181-.53857a6.2673,6.2673,0,0,1-.99212,1.78583,7.27378,7.27378,0,0,1-1.53072,1.559,7.63059,7.63059,0,0,1-5.78267,1.44568,8.23919,8.23919,0,0,1-5.641-3.37323l-7.852-10.37482,3.28819-2.46613,8.16378,10.8a4.05874,4.05874,0,0,0,2.69291,1.72919,3.508,3.508,0,0,0,2.89135-.68036,3.73014,3.73014,0,0,0,1.44566-2.60785,4.26452,4.26452,0,0,0-.87874-3.08978l-8.16378-10.8,3.25984-2.46612,7.90867,10.43145a8.74161,8.74161,0,0,1,1.04881,1.87085,9.29957,9.29957,0,0,1,.53859,1.87091Zm12.24567-15.64722a8.07809,8.07809,0,0,1,1.04883,6.37793,7.70678,7.70678,0,0,1-9.46771,5.83942,7.957,7.957,0,0,1-5.35749-3.77009l-4.90393-8.02209-2.09764,1.27563-1.92756-3.14648,5.66929-3.45825,6.94489,11.39526a4.58818,4.58818,0,0,0,2.7496,2.126,3.71552,3.71552,0,0,0,4.64882-2.80628,4.63251,4.63251,0,0,0-.737-3.40161l-1.84251-3.033,3.57166-2.18268Z" transform="translate(-42.88192 -165.38187)"/><path class="cls-2" d="M438.3433,257.678a7.93192,7.93192,0,0,1-5.04569,2.91968,8.7053,8.7053,0,0,1-6.2929-1.4173l-1.44568,1.78583-3.23148-2.63623,1.4173-1.75751a8.862,8.862,0,0,1-2.60785-5.58423,7.94214,7.94214,0,0,1,1.87085-5.83936,7.7319,7.7319,0,0,1,5.27243-2.97638,9.10773,9.10773,0,0,1,6.06616,1.44568l1.30393-1.61578,3.25985,2.63623-1.36062,1.6441a8.87562,8.87562,0,0,1,2.6362,5.75434,8.07527,8.07527,0,0,1-1.8425,5.64093Zm-3.31656-2.72125a5.45582,5.45582,0,0,0,1.2756-2.80628,3.89741,3.89741,0,0,0-1.02047-3.06146l-5.98111,7.285a3.55149,3.55149,0,0,0,3.1181.48194,5.63246,5.63246,0,0,0,2.60788-1.89923Zm-8.92914-1.24726,5.92444-7.25671a3.98357,3.98357,0,0,0-3.1748-.42517,5.35635,5.35635,0,0,0-2.55121,1.84253,5.04393,5.04393,0,0,0-1.21887,2.89129,3.75185,3.75185,0,0,0,1.02044,2.94806Zm19.07718,25.285-2.91968-2.91968,9.52442-9.58112a4.31778,4.31778,0,0,0,1.33227-3.0047,3.65316,3.65316,0,0,0-1.04883-2.69293,3.59108,3.59108,0,0,0-2.66455-1.07715,4.74136,4.74136,0,0,0-3.25985,1.5307l-9.35434,9.411-2.89133-2.863,8.98584-9.07086a8.609,8.609,0,0,1,6.26456-2.778,7.60872,7.60872,0,0,1,7.71023,7.90863,8.28349,8.28349,0,0,1-2.4945,5.89612Zm21.37323,8.53228-2.63623-3.1748,2.18268-1.81415a4.6474,4.6474,0,0,0,1.61575-2.60791,3.57492,3.57492,0,0,0-.76535-3.08972,3.51052,3.51052,0,0,0-2.7496-1.304,5.02262,5.02262,0,0,0-3.20316,1.24726l-10.17639,8.41888-2.60785-3.14642,9.75116-8.0788a8.96243,8.96243,0,0,1,6.32126-2.23932,7.3449,7.3449,0,0,1,5.47089,2.72126,7.47678,7.47678,0,0,1,1.70077,6.00946,8.96185,8.96185,0,0,1-3.28818,5.72595Zm5.30078,21.6-3.9685-.25507c.14172-.7937.25512-1.50238.31179-2.21106.02836-.14172.11341-.822.22678-2.041a9.026,9.026,0,0,1-3.45825-1.3606,6.97868,6.97868,0,0,1-2.01261-1.95593,4.915,4.915,0,0,1-.822-3.65668,4.40173,4.40173,0,0,1,1.89923-3.08978,4.33256,4.33256,0,0,1,3.65668-.59521,5.25155,5.25155,0,0,1,3.20316,2.23932,9.04916,9.04916,0,0,1,1.1622,2.46612,11.54175,11.54175,0,0,1,.53857,2.89136,5.71331,5.71331,0,0,0,2.91968-.31177,13.77733,13.77733,0,0,0,2.863-1.47406,4.75786,4.75786,0,0,0,2.0693-2.863,3.75334,3.75334,0,0,0-.5386-3.1181,3.70145,3.70145,0,0,0-2.72126-1.72912A5.28184,5.28184,0,0,0,473.663,293.111c-.085.05677-.17007.14179-.31183.25513-.11337.1134-.34015.36853-.6803.73706l-2.83465-2.83466a9.26764,9.26764,0,0,1,.68033-.76538,6.18321,6.18321,0,0,1,.90707-.76532,8.26449,8.26449,0,0,1,6.20789-1.33233,7.62606,7.62606,0,0,1,5.24408,3.31659,8.42382,8.42382,0,0,1-2.18268,11.39526,12.64026,12.64026,0,0,1-8.30551,2.06927c-.05667.53858-.14173,1.19056-.2551,1.92756-.08505.68029-.19843,1.33227-.28348,2.01257Zm-3.42993-8.10706a6.24435,6.24435,0,0,0-.14172-1.55908,3.68914,3.68914,0,0,0-.4252-1.24719,2.5347,2.5347,0,0,0-.99213-.93543.97651.97651,0,0,0-.99213.14173.93942.93942,0,0,0-.3685.96374,2.04693,2.04693,0,0,0,.3685,1.07715,3.83909,3.83909,0,0,0,1.10553.96381,3.41321,3.41321,0,0,0,1.44565.59527Zm13.3512,28.34647-4.252-1.07718,1.07718-3.77008a8.85384,8.85384,0,0,1-1.61575-1.24725,7.02514,7.02514,0,0,1-1.33228-1.75745,7.56724,7.56724,0,0,1-.59527-5.89606,8.35829,8.35829,0,0,1,4.13858-5.13073l11.42361-6.26459,1.9559,3.6-11.87716,6.51971a4.19092,4.19092,0,0,0-2.09763,2.43774,3.56607,3.56607,0,0,0,.25513,2.94806,3.6754,3.6754,0,0,0,2.3811,1.78583,4.02235,4.02235,0,0,0,3.20313-.42523l11.84881-6.51965,1.98426,3.6-11.48032,6.29291a8.22,8.22,0,0,1-3.9118,1.04883Zm11.82046,19.1055-1.19055-2.863-4.252,1.84253-1.64411-3.85513,4.252-1.81418-1.58741-3.65668a7.765,7.765,0,0,1-.19842-6.2929,8.43286,8.43286,0,0,1,4.81891-4.45041,8.19071,8.19071,0,0,1,6.2362-.17008,7.56906,7.56906,0,0,1,4.62049,4.30866,7.73685,7.73685,0,0,1-.11338,6.43463,7.59882,7.59882,0,0,1-3.99685,4.16693L495.7732,344.163l1.2189,2.863Zm.53858-8.13544,4.87561-2.09762a4.13857,4.13857,0,0,0,2.126-2.04093,3.70413,3.70413,0,0,0,.14173-3.2315,3.5942,3.5942,0,0,0-2.126-2.041,4.94244,4.94244,0,0,0-3.71338.28345,5.175,5.175,0,0,0-2.69293,2.35278,3.77983,3.77983,0,0,0-.085,3.31653Zm5.21576,25.79529-1.24726-3.94015,3.11811-.96378a4.58928,4.58928,0,0,0,2.4945-1.84253,3.49005,3.49005,0,0,0,.45352-3.1181,3.3987,3.3987,0,0,0-2.06927-2.23938,4.74384,4.74384,0,0,0-3.42993-.0567l-7.62519,2.40948-1.24725-3.91183,20.126-6.34961,1.2189,3.91183-5.69763,1.78583A7.43758,7.43758,0,0,1,506.8,353.404a7.52437,7.52437,0,0,1,.14173,7.90863,8.8,8.8,0,0,1-5.18738,4.05356Zm5.1874,18.99213a5.8845,5.8845,0,0,1-4.989-1.07715,8.9825,8.9825,0,0,1-3.14645-5.58429,8.66958,8.66958,0,0,1,.737-6.23621,6.69253,6.69253,0,0,1,4.67715-3.31653l1.24725,3.77008a4.51328,4.51328,0,0,0-2.60788,1.89924,4.67846,4.67846,0,0,0-.31179,3.31652,4.63016,4.63016,0,0,0,1.41732,2.69291,2.2352,2.2352,0,0,0,2.04093.51022,2.04426,2.04426,0,0,0,1.50238-1.16217,10.89313,10.89313,0,0,0,.51022-3.99689,10.77568,10.77568,0,0,1,1.33228-5.78265,5.20421,5.20421,0,0,1,3.42993-2.35279,5.28926,5.28926,0,0,1,4.62048,1.07718,10.03017,10.03017,0,0,1,2.2677,10.8,6.60223,6.60223,0,0,1-4.19528,3.1181l-1.02045-3.9685a2.50368,2.50368,0,0,0,2.04093-1.70081,5.21605,5.21605,0,0,0,.02835-2.57953,4.40212,4.40212,0,0,0-1.1622-2.3244,1.74056,1.74056,0,0,0-1.61575-.59527,1.52225,1.52225,0,0,0-1.13386,1.02047,9.96851,9.96851,0,0,0-.36849,3.06144c-.05671,3.25982-.53858,5.61261-1.50239,7.05825a5.65392,5.65392,0,0,1-3.7984,2.35276Zm-2.55117,22.6488-3.48664-2.66455,2.43781-3.0614a8.717,8.717,0,0,1-1.02048-1.78583,8.3679,8.3679,0,0,1-.53857-2.126,7.48292,7.48292,0,0,1,1.75747-5.66931,8.20524,8.20524,0,0,1,5.78269-3.1181l12.95431-1.36066.4252,4.08191-13.46457,1.41733a4.17161,4.17161,0,0,0-2.89132,1.41733,3.65826,3.65826,0,0,0-.90711,2.83465,3.78073,3.78073,0,0,0,1.50238,2.57953,4.2299,4.2299,0,0,0,3.08976.85037l13.49292-1.44564.4252,4.08184-13.03937,1.389a8.81947,8.81947,0,0,1-2.126-.05667,9.82028,9.82028,0,0,1-1.8992-.51022Zm-1.19056,19.07718-.02835-4.11023,6.20786-.0567a4.43662,4.43662,0,0,1-1.33228-1.8992,5.48021,5.48021,0,0,1-.34015-1.89923,7.38635,7.38635,0,0,1,2.49448-5.69764,8.99364,8.99364,0,0,1,6.12283-2.3244l7.852-.0567.02835,4.13861-8.13543.05667a5.26023,5.26023,0,0,0-3.11811,1.02048,3.28214,3.28214,0,0,0-1.55905,2.83466,3.479,3.479,0,0,0,1.27561,2.7496,4.99992,4.99992,0,0,0,3.25982,1.0488l3.00473-.02832.02835,4.13858Zm-.822,22.13858-2.91971-3.31653,3.03308-2.52283a7.86077,7.86077,0,0,1-.76535-4.11023,7.5886,7.5886,0,0,1,2.863-5.21575,8.18962,8.18962,0,0,1,6.29291-1.8992l12.98266,1.27557-.39685,4.08191-13.49292-1.33231a4.307,4.307,0,0,0-3.1181.822,3.68616,3.68616,0,0,0-.51022,5.41419,4.195,4.195,0,0,0,2.863,1.44565l13.49292,1.3323-.39685,4.08188-13.03936-1.27557a7.89432,7.89432,0,0,1-2.06931-.48191,9.24485,9.24485,0,0,1-1.75748-.87875Zm2.66455,20.97638a8.1682,8.1682,0,0,1-5.38583-3.57166,7.73361,7.73361,0,0,1,2.15436-10.91336,7.87821,7.87821,0,0,1,6.40628-1.36065l9.21261,1.84253.48188-2.40946,3.62835.737-1.30395,6.49133-13.096-2.63623a4.55622,4.55622,0,0,0-3.42993.56693,3.66281,3.66281,0,0,0-1.07718,5.30078A4.46743,4.46743,0,0,0,503.2,465.79764l3.48663.70868-.82205,4.11023Zm-16.696,25.05829,1.41733-3.88349,5.8677,2.126a4.19712,4.19712,0,0,1-.59527-2.23938,5.24039,5.24039,0,0,1,.31179-1.8992,7.36771,7.36771,0,0,1,4.337-4.47876,8.85265,8.85265,0,0,1,6.548-.0567l7.37009,2.66458-1.389,3.88345-7.65353-2.77795a5.41962,5.41962,0,0,0-3.28821-.11337,3.41906,3.41906,0,0,0-2.18268,5.1307,4.81892,4.81892,0,0,0,2.69294,2.126l2.8063,1.02048-1.389,3.88345Zm2.6362,24.68976,5.47088-11.48032-4.36535-2.06931a4.39657,4.39657,0,0,0-3.20316-.34014,3.55466,3.55466,0,0,0-2.296,1.98425,3.7174,3.7174,0,0,0-.085,2.91968,4.2436,4.2436,0,0,0,2.26773,2.3811l2.2677,1.10553-1.78583,3.74173-2.15433-1.02048a8.3279,8.3279,0,0,1-4.45037-4.90393,7.67152,7.67152,0,0,1,4.79052-9.978,8.41685,8.41685,0,0,1,6.60474.48191l11.65039,5.55591-1.78583,3.71338-4.13858-1.95591L491.88975,521.3Zm-15.137,15.959a8.17223,8.17223,0,0,1-3.85513-5.15906,7.74822,7.74822,0,0,1,5.69766-9.55273,7.89986,7.89986,0,0,1,6.49134.87872l8.07873,4.84726,1.24726-2.09765,3.1748,1.89923-3.42993,5.66928-11.42362-6.88819a4.569,4.569,0,0,0-3.42993-.62362,3.55974,3.55974,0,0,0-2.40945,1.67245,3.5216,3.5216,0,0,0-.39685,2.948,4.433,4.433,0,0,0,2.211,2.6929l3.03308,1.84253-2.15433,3.57166ZM460,550.78033a5.8535,5.8535,0,0,1-2.49448-4.42205,9.01314,9.01314,0,0,1,2.09763-6.09449,8.65849,8.65849,0,0,1,5.159-3.57165,6.61749,6.61749,0,0,1,5.58426,1.30395l-2.0126,3.4299a4.49382,4.49382,0,0,0-3.14646-.68029,4.58244,4.58244,0,0,0-2.66458,1.9559,4.51772,4.51772,0,0,0-1.07714,2.83462,2.34987,2.34987,0,0,0,.93542,1.89924,2.04852,2.04852,0,0,0,1.87085.34014,11.18909,11.18909,0,0,0,3.34488-2.2677,10.76932,10.76932,0,0,1,5.21576-2.83465,5.165,5.165,0,0,1,4.02521,1.02048,5.28736,5.28736,0,0,1,2.2677,4.13858,8.672,8.672,0,0,1-1.95591,5.41415,8.47688,8.47688,0,0,1-4.62045,3.45828,6.69927,6.69927,0,0,1-5.13071-1.04883l2.296-3.40158a2.50879,2.50879,0,0,0,2.63624.36853,4.74776,4.74776,0,0,0,1.92755-1.67245,4.35244,4.35244,0,0,0,.99212-2.40946,1.71305,1.71305,0,0,0-.652-1.5874,1.42242,1.42242,0,0,0-1.50235-.17007,9.88085,9.88085,0,0,0-2.52286,1.72912c-2.49448,2.126-4.56375,3.31656-6.26456,3.54331A5.59882,5.59882,0,0,1,460,550.78033ZM449.65351,568.837l2.778-3.06144,2.09766,1.92756a4.64176,4.64176,0,0,0,2.83463,1.2189,3.58989,3.58989,0,0,0,2.948-1.19055,3.46584,3.46584,0,0,0,.87876-2.91968,4.81486,4.81486,0,0,0-1.70078-3.00473l-9.77954-8.84409,2.74961-3.03308,9.411,8.50394a8.78625,8.78625,0,0,1,3.08978,5.89606,7.58972,7.58972,0,0,1-7.62521,8.36221,8.86556,8.86556,0,0,1-6.09449-2.43778Zm-22.337,6.09448,3.03309-2.778,9.12756,9.94962a4.30234,4.30234,0,0,0,2.948,1.474,3.65218,3.65218,0,0,0,2.7496-.90708,3.58829,3.58829,0,0,0,1.19055-2.63623,4.66,4.66,0,0,0-1.389-3.31652l-8.95749-9.77954,3.00473-2.74961,8.64566,9.411a8.74337,8.74337,0,0,1,2.4945,6.37793,7.67762,7.67762,0,0,1-8.30551,7.34174,8.38553,8.38553,0,0,1-5.75433-2.778ZM415.18424,594.037a8.16987,8.16987,0,0,1-1.67245-6.23621,7.79515,7.79515,0,0,1,3.08978-5.32913,7.60664,7.60664,0,0,1,5.7543-1.41733,7.86685,7.86685,0,0,1,5.726,3.23151l5.66932,7.48346,1.9559-1.474,2.211,2.948-5.27246,3.99685-8.05039-10.65826a4.45554,4.45554,0,0,0-2.948-1.84253,3.50889,3.50889,0,0,0-2.863.652,3.73,3.73,0,0,0-1.474,2.57953,4.59742,4.59742,0,0,0,1.04883,3.31652l2.15432,2.83466-3.34488,2.52283Z" transform="translate(-42.88192 -165.38187)"/><path class="cls-3" d="M268.74645,489.7504v-.42517a46.64446,46.64446,0,0,1-13.1244-15.874c-6.51969-12.69922-6.49134-22.73385-6.49134-36.9071V373.44489c0-6.80314-1.474-15.27872,5.1874-19.21891,7.02992-4.13858,12.926,1.58741,13.1811,9.60944l.11339,42.57641c0,.53858-.19842,4.56379,1.02048,4.45038.3685-.02835.11337-5.01733.11337-5.58426l-.02833-63.12753c.05668-8.44726,5.64094-14.9386,13.663-11.25357,6.00946,2.32443,4.79055,11.76376,4.79055,18.56693,0,18.4819-.34016,41.01733.45354,58.87561.02835.59527.085,2.06927.4252,2.29605a.654.654,0,0,0,.48189.02835c.62363-.19843.28346-10.063.28346-15.44882V346.1189c0-7.54013-2.49447-19.0488,5.86772-22.47873a9.24689,9.24689,0,0,1,10.77166,3.1181c2.60788,3.37323,1.81417,7.99371,1.78582,12.10394-.02835,20.2677-.28347,40.56378-.08505,60.85987.02835,2.863.08505,5.7543.17008,8.61731a16.04481,16.04481,0,0,0,.22677,2.126c0,.0567.4819.19843.652,0,.34015-.4252.17007-1.81418.19842-2.3244.08506-2.8063.14173-5.64093.14173-8.44726.08505-7.852.02835-15.70392-.02835-23.55591-.02832-7.02991-.085-14.05982-.11338-21.11811-.02835-4.6488-.08505-9.38269.02835-14.05981.19843-5.92444,3.45826-10.99844,9.18424-11.0835a9.1002,9.1002,0,0,1,7.39844,3.65671c3.79843,4.90393,2.3244,17.43308,2.3244,23.726,0,24.32126-1.02048,48.69922-.4252,72.99213v.085c0,.48188-.02835,1.75748.0567,2.57953h.737l.4252-39.45828v-.1134c.59528-8.47559,8.73071-13.011,15.137-7.76691,5.32914,4.39368,3.685,13.94647,3.685,20.2677,0,13.94647.17008,27.92126,0,41.89609-.25512,18.85037-9.49606,35.60315-24.26455,44.90078v18.6803H268.74645Z" transform="translate(-42.88192 -165.38187)"/><path class="cls-2" d="M264.8063,628.08112h-5.32914v-7.37006a2.9455,2.9455,0,0,0-1.1622-2.43781,4.863,4.863,0,0,0-3.11811-.9071h-7.852v-4.2803h7.68188a3.52594,3.52594,0,0,0,2.23938-.70865,2.40983,2.40983,0,0,0,1.02046-2.01261,2.38289,2.38289,0,0,0-.7937-1.87088,2.842,2.842,0,0,0-1.9559-.737h-8.19212v-4.30865h8.27716a9.18367,9.18367,0,0,1,5.726,1.75748,6.21175,6.21175,0,0,1,2.52284,5.159,4.7031,4.7031,0,0,1-.76536,2.55118,5.62863,5.62863,0,0,1-2.04094,1.9559,5.63248,5.63248,0,0,1,2.72126,2.15433,6.168,6.168,0,0,1,1.02047,3.51495Zm29.1685-1.44565-4.02519,3.74173-3.7134-3.23151a10.41685,10.41685,0,0,1-2.52282.96378,11.18022,11.18022,0,0,1-2.863.3685,10.71648,10.71648,0,0,1-7.285-2.72126,8.99537,8.99537,0,0,1-3.31654-7.08661v-15.222h5.44252v15.81732a4.6453,4.6453,0,0,0,1.50236,3.54331,5.2028,5.2028,0,0,0,3.6,1.389,5.122,5.122,0,0,0,3.62836-1.44568,4.46973,4.46973,0,0,0,1.55905-3.4866V603.44806H291.452v15.30707a7.74912,7.74912,0,0,1-.36851,2.46615,8.9674,8.9674,0,0,1-.93543,2.126Zm29.56534-10.9701a8.56509,8.56509,0,0,1-2.74961,6.378,12.41159,12.41159,0,0,1-7.65353,3.34488v2.69291h-5.58426v-2.66456a12.36146,12.36146,0,0,1-7.39841-3.08978,8.68384,8.68384,0,0,1-3.00473-6.66141,8.53342,8.53342,0,0,1,2.91968-6.57638,12.53419,12.53419,0,0,1,7.48346-3.17481v-2.46612H313.137v2.49448a12.38289,12.38289,0,0,1,7.54016,3.25985,8.65359,8.65359,0,0,1,2.863,6.463Zm-5.69763,0a5.61475,5.61475,0,0,0-1.07715-3.4866,5.12274,5.12274,0,0,0-3.62836-2.0126v10.99841a4.87607,4.87607,0,0,0,3.6-1.8992,5.7341,5.7341,0,0,0,1.1055-3.6Zm-10.28977,5.47086V610.16617a5.41228,5.41228,0,0,0-3.62833,1.98425,6.12322,6.12322,0,0,0,.085,7.05826,5.15692,5.15692,0,0,0,3.5433,1.92755Zm41.10236,6.94489h-5.47086v-7.285a5.80518,5.80518,0,0,1-2.55118,1.55905,8.86011,8.86011,0,0,1-2.55117.39685,10.48082,10.48082,0,0,1-7.56852-2.97638,9.6259,9.6259,0,0,1-3.0614-7.17163v-9.15591h5.49921v9.49606a5.75732,5.75732,0,0,0,1.33227,3.65668,4.78934,4.78934,0,0,0,3.79844,1.84253,4.87061,4.87061,0,0,0,3.65667-1.474,5.24133,5.24133,0,0,0,1.44568-3.7984v-3.515h5.47086Z" transform="translate(-42.88192 -165.38187)"/><path class="cls-3" d="M265.77007,565.3504a23.81769,23.81769,0,0,1-6.34959-.085c-17.94332-12.64252-32.485-.87875-52.49764,20.49448,3.03307-2.23938,10.23307-6.74646,16.21418-5.86771,38.948,5.58426,27.9496-13.3512,42.633-12.81259Zm-63.8929-255.20315a12.7581,12.7581,0,0,0,2.80631-1.64411c5.24409-10.09131,14.20157-8.53228,27.66614-4.08184-1.81418-.22681-6.06615-.53864-8.44725,1.474-14.37165,12.04725-15.25039,1.10547-21.6567,5.01734Zm-19.55905,23.66931a15.18982,15.18982,0,0,0,2.72125-2.83466c3.03309-13.37951,13.77639-14.68347,30.52915-14.2016-2.15434.36853-7.115,1.474-9.24095,4.59217-12.95433,18.76532-17.178,6.51965-23.35749,13.20941Zm-15.959,32.65509a18.25175,18.25175,0,0,0,2.29607-4.02521c-.17009-16.01575,11.56534-20.83462,30.47243-25.56848-2.32442,1.07715-7.56851,3.88348-9.1559,8.05038-9.46773,25.17167-17.51811,12.72757-22.67717,22.16694ZM161.2,404.17245a20.88243,20.88243,0,0,0,1.10552-4.59213c-4.47874-15.3638,5.52755-23.69763,22.50708-34.21417-1.9559,1.78583-6.26457,6.15118-6.66142,10.65826-2.3811,27.21262-13.49291,17.74491-15.90236,28.48819Zm2.211,39.37323a23.62233,23.62233,0,0,0,.05669-5.10235c-8.4189-14.68347-.02835-26.22049,15.052-41.98111-1.58739,2.40945-5.04565,8.16379-4.337,12.98267,4.16693,28.97009-9.69449,22.30865-9.5811,34.1575ZM174.66457,486.689a22.4288,22.4288,0,0,0-.96377-5.27247c-11.5937-13.18109-5.24409-27.01416,7.17166-46.74328-1.16222,2.83462-3.54332,9.58108-1.87087,14.37164,10.03464,28.885-5.5559,25.22836-3.08976,37.41733Zm15.222,26.022a27.76811,27.76811,0,0,0-1.07716-5.86771c-12.86928-14.65512-5.811-29.96222,7.96536-51.90237-1.27559,3.1748-3.7134,10.54489-2.09764,15.95907,10.60157,35.23465-6.15119,28.03464-3.42992,41.55591Zm33.789,28.34647a23.2089,23.2089,0,0,0-3.79842-4.50708c-18.34015-5.41419-19.70079-22.76221-18.4252-49.7197.4252,3.4866,1.92757,11.31024,5.98111,15.08032,26.44724,24.63306,8.33386,27.89292,17.31969,38.126Zm40.56378,17.20629a24.61766,24.61766,0,0,0-5.13071-3.6c-20.66456-.2551-26.47558-18.11337-31.94645-46.82834,1.33229,3.5433,4.90394,11.33859,10.11969,14.11655,33.98739,18.05667,15.789,26.84408,27.80786,34.92282Zm21.62834,6.548c-36.652,0-69.84565-16.69608-93.8551-43.65354-24.00944-26.98584-38.863-64.23309-38.863-105.3638s14.85355-78.40628,38.863-105.3638a138.26984,138.26984,0,0,1,19.75748-18.28344c1.81418-3.42993,1.89921-8.44727,15.19369-10.31812,3.03308-.42517,5.86772-3.94018,7.00157-5.4992-6.63307,13.60626-10.00628,20.041-21.34488,18.1701a6.4702,6.4702,0,0,0-.70864-.0567,134.23708,134.23708,0,0,0-18.59528,17.348C169.61891,338.40866,154.9638,375.174,154.9638,415.79449s14.65511,77.38584,38.35275,104.00318c23.66928,26.589,56.40944,43.05826,92.55116,43.05826ZM200.8,296.68265a14.24205,14.24205,0,0,1,1.78583-2.863c9.978-4.6488,9.43936-14.57007,6.71811-29.67871.02835,2.01257-.14174,6.66138-2.23937,9.04248-12.7559,14.37171-2.63623,16.4693-6.94488,23.01734Zm-19.84251,17.178a15.22733,15.22733,0,0,1,2.01258-3.14649c10.9134-5.10229,10.31812-15.98736,7.34174-32.54169.02835,2.211-.14172,7.285-2.46614,9.92127-13.97481,15.73224-2.89134,18.0567-7.6252,25.22833Zm-13.35119,19.36065a17.382,17.382,0,0,1,1.2189-4.13861c10.34646-9.38269,6.463-21.03308-1.78583-38.041.68032,2.40948,2.041,8.022.28347,11.67877-10.45984,22.05353,2.29606,20.69287-.68032,30.16061Zm-8.13543,23.49921a20.65305,20.65305,0,0,1,.22677-4.76221c8.64567-13.09607,1.474-24.34961-11.65039-39.9685,1.33229,2.3244,4.19528,7.90863,3.28819,12.33069-5.47086,26.64569,7.76693,21.3449,7.02992,32.34332Zm-7.88031,22.93225a19.81451,19.81451,0,0,1-.87874-4.6488c5.32913-15.02362-4.16693-23.98108-20.52284-35.60315,1.84253,1.92755,5.92441,6.548,6.06614,11.05511.82206,27.29767,12.4441,18.59528,14.22992,29.452Zm-1.81417,24.548a18.80346,18.80346,0,0,1-1.84252-4.30866c1.92755-15.959-9.26929-22.25195-27.66614-29.39526,2.211,1.389,7.17165,4.84723,8.27716,9.21258,6.71811,26.33386,16.12913,14.9386,20.23937,25.02994Zm.652,25.71026a20.87063,20.87063,0,0,1-3.20315-3.99686c-2.46614-17.65985-16.18582-20.66458-37.81416-22.19528,2.7496.76535,9.01417,2.80631,11.452,7.08661,14.62677,25.82364,21.40158,10.57324,28.62992,19.98425Zm6.74646,33.59055a23.28892,23.28892,0,0,1-3.6-4.50708c-2.8063-19.98426-18.31181-23.38584-42.80315-25.115,3.11811.85037,10.20473,3.1748,12.95433,8.022,16.55433,29.25354,24.23622,11.96222,32.42835,22.62048Zm10.91338,27.24093a21.77205,21.77205,0,0,1-4.30866-3.77008c-5.95275-19.13385-21.77007-19.5874-46.148-16.696,3.17481.25509,10.34646,1.389,14.0315,5.47085,23.811,26.61734,25.76693,7.22837,35.54645,16.18582Zm13.63465,23.66931a21.26462,21.26462,0,0,1-4.96064-2.863c-9.29763-17.9433-25.22834-15.137-49.09605-7.22833,3.2315-.39685,10.62992-.737,14.99528,2.57952,28.51653,21.74173,27.07086,1.95591,38.40944,8.90079Zm22.81889,23.24408a23.47892,23.47892,0,0,1-5.83937-2.3244c-12.75591-17.97165-29.70708-12.189-54.62361.48191,3.48661-.99213,11.48031-2.60788,16.75275.28344,34.27087,18.85041,29.79212-2.49447,43.2,3.14646Zm27.24094,17.54648a22.46618,22.46618,0,0,1-6.12284-1.13388c-15.50551-15.25039-31.26613-6.32126-53.68817,10.91339,3.25984-1.6441,10.85669-4.7622,16.526-2.91967,36.82205,11.99053,28.91339-8.16379,43.02992-5.18741Z" transform="translate(-42.88192 -165.38187)"/><path class="cls-3" d="M330.22993,565.3504a23.81762,23.81762,0,0,0,6.34958-.085c17.94332-12.64252,32.485-.87875,52.526,20.49448-3.06144-2.23938-10.26142-6.74646-16.24253-5.86771-38.948,5.58426-27.94961-13.3512-42.633-12.81259Zm63.89288-255.20315a12.75856,12.75856,0,0,1-2.80631-1.64411c-5.24407-10.09131-14.20156-8.53228-27.66613-4.08184,1.84253-.22681,6.06616-.53864,8.44726,1.474,14.37165,12.04725,15.2504,1.10547,21.65668,5.01734Zm19.559,23.66931a17.24748,17.24748,0,0,1-2.72125-2.83466c-3.03308-13.37951-13.77637-14.68347-30.52912-14.2016,2.15433.36853,7.115,1.474,9.26929,4.59217,12.926,18.76532,17.1496,6.51965,23.32913,13.20941Zm15.95908,32.65509a18.25019,18.25019,0,0,1-2.29608-4.02521c.17007-16.01575-11.537-20.83462-30.47245-25.56848,2.32444,1.07715,7.59687,3.88348,9.15592,8.05038,9.46771,25.17167,17.51809,12.72757,22.67715,22.16694Zm5.18737,37.7008a19.44616,19.44616,0,0,1-1.13385-4.59213c4.47873-15.3638-5.52755-23.69763-22.47872-34.21417,1.92755,1.78583,6.26455,6.15118,6.63305,10.65826,2.38111,27.21262,13.49292,17.74491,15.90238,28.48819ZM432.589,443.54568a21.94261,21.94261,0,0,1-.02836-5.10235c8.39054-14.68347.02836-26.22049-15.052-41.98111,1.58741,2.40945,5.01734,8.16379,4.30866,12.98267-4.16693,28.97009,9.69449,22.30865,9.58111,34.1575ZM421.33543,486.689a23.9789,23.9789,0,0,1,.96377-5.27247c11.59369-13.18109,5.24408-27.01416-7.17166-46.74328,1.1622,2.83462,3.5433,9.58108,1.8992,14.37164-10.063,28.885,5.52756,25.22836,3.08978,37.41733ZM406.1417,512.711a26.03311,26.03311,0,0,1,1.04883-5.86771c12.86929-14.65512,5.811-29.96222-7.96536-51.90237,1.30395,3.1748,3.7134,10.54489,2.09765,15.95907-10.60159,35.23465,6.17954,28.03464,3.4299,41.55591ZM372.32441,541.0575a23.20916,23.20916,0,0,1,3.7984-4.50708c18.34018-5.41419,19.70081-22.76221,18.4252-49.7197-.4252,3.4866-1.92755,11.31024-5.98111,15.08032-26.41888,24.63306-8.33383,27.89292-17.31967,38.126Zm-40.56378,17.20629a25.3846,25.3846,0,0,1,5.1307-3.6c20.66455-.2551,26.47559-18.11337,31.94645-46.82834-1.33228,3.5433-4.87558,11.33859-10.09134,14.11655-34.01575,18.05667-15.81733,26.84408-27.83622,34.92282Zm-21.6,6.548c36.652,0,69.81732-16.69608,93.8551-43.65354,24.00946-26.98584,38.83466-64.23309,38.83466-105.3638s-14.8252-78.40628-38.83466-105.3638a138.47359,138.47359,0,0,0-19.78582-18.28344c-1.81415-3.42993-1.8992-8.44727-15.1937-10.31812-3.03305-.42517-5.83935-3.94018-7.00156-5.4992,6.63306,13.60626,10.00629,20.041,21.34488,18.1701a6.97013,6.97013,0,0,1,.737-.0567,135.65255,135.65255,0,0,1,18.56693,17.348c23.69763,26.61731,38.35275,63.38269,38.35275,104.00314s-14.65512,77.38584-38.35275,104.00318c-23.66928,26.589-56.38111,43.05826-92.52283,43.05826Zm85.06772-268.12918a15.77493,15.77493,0,0,0-1.81418-2.863c-9.978-4.6488-9.43936-14.57007-6.71811-29.67871-.02835,2.01257.14173,6.66138,2.23938,9.04248,12.75589,14.37171,2.6362,16.4693,6.97321,23.01734Zm19.81415,17.178a16.3774,16.3774,0,0,0-1.98426-3.14649c-10.91336-5.10229-10.34643-15.98736-7.37-32.54169-.02835,2.211.17007,7.285,2.46612,9.92127,13.97483,15.73224,2.89136,18.0567,7.62522,25.22833Zm13.35119,19.36065a17.382,17.382,0,0,0-1.2189-4.13861c-10.34647-9.38269-6.463-21.03308,1.78583-38.041-.68033,2.40948-2.01261,8.022-.28348,11.67877,10.45987,22.05353-2.296,20.69287.70868,30.16061Zm8.13544,23.49921a20.65306,20.65306,0,0,0-.22678-4.76221c-8.61734-13.09607-1.474-24.34961,11.67875-39.9685-1.36063,2.3244-4.22364,7.90863-3.31653,12.33069,5.47085,26.64569-7.76694,21.3449-7.02994,32.34332Zm7.88031,22.93225a19.815,19.815,0,0,0,.87872-4.6488c-5.32913-15.02362,4.19529-23.98108,20.52286-35.60315-1.84253,1.92755-5.92441,6.548-6.06616,11.05511-.822,27.29767-12.44409,18.59528-14.22992,29.452Zm1.81418,24.548a17.63785,17.63785,0,0,0,1.8425-4.30866c-1.92755-15.959,9.26929-22.25195,27.66614-29.39526-2.211,1.389-7.14331,4.84723-8.27717,9.21258-6.7181,26.33386-16.12911,14.9386-20.23934,25.02994Zm-.652,25.71026a20.87144,20.87144,0,0,0,3.20316-3.99686c2.46612-17.65985,16.18582-20.66458,37.81415-22.19528-2.74961.76535-9.01417,2.80631-11.452,7.08661-14.62677,25.82364-21.40155,10.57324-28.62991,19.98425Zm-6.74646,33.59055a23.42252,23.42252,0,0,0,3.62836-4.50708c2.77795-19.98426,18.3118-23.38584,42.77478-25.115-3.08975.85037-10.20471,3.1748-12.926,8.022C455.748,471.15512,448.06611,453.8638,439.874,464.52206Zm-10.885,27.24093a22.44256,22.44256,0,0,0,4.28034-3.77008c5.95272-19.13385,21.77005-19.5874,46.17636-16.696-3.20316.25509-10.37482,1.389-14.0315,5.47085-23.83938,26.61734-25.79529,7.22837-35.5748,16.18582Zm-13.663,23.66931a21.26456,21.26456,0,0,0,4.96063-2.863c9.29764-17.9433,25.22836-15.137,49.09607-7.22833-3.23151-.39685-10.60159-.737-14.99527,2.57952-28.51654,21.74173-27.07086,1.95591-38.40946,8.90079Zm-22.81888,23.24408a23.47894,23.47894,0,0,0,5.83935-2.3244c12.75592-17.97165,29.7071-12.189,54.62363.48191-3.48663-.99213-11.48032-2.60788-16.72443.28344-34.29919,18.85041-29.82046-2.49447-43.2,3.14646Zm-27.24094,17.54648a22.46618,22.46618,0,0,0,6.12284-1.13388c15.53384-15.25039,31.26611-6.32126,53.68817,10.91339-3.25986-1.6441-10.85669-4.7622-16.526-2.91967-36.82206,11.99053-28.91339-8.16379-43.02994-5.18741Z" transform="translate(-42.88192 -165.38187)"/><path class="cls-1" d="M296.83779,424.1a33.789,33.789,0,1,1-33.789,33.789,33.77655,33.77655,0,0,1,33.789-33.789Z" transform="translate(-42.88192 -165.38187)"/><path class="cls-3" d="M296.83779,454.1189a3.77008,3.77008,0,1,1-3.77008,3.77008,3.78668,3.78668,0,0,1,3.77008-3.77008Z" transform="translate(-42.88192 -165.38187)"/><path class="cls-3" d="M296.58268,425.54568l2.778,23.98111a2.7655,2.7655,0,1,1-5.52757,0Z" transform="translate(-42.88192 -165.38187)"/><path class="cls-3" d="M318.89133,434.2197,304.43464,453.552a2.72761,2.72761,0,0,1-3.99686.17008,2.69457,2.69457,0,0,1-.02835-3.96851Z" transform="translate(-42.88192 -165.38187)"/><path class="cls-3" d="M329.1811,457.974l-24.00946,2.52283a2.69353,2.69353,0,0,1-2.83463-2.778,2.73176,2.73176,0,0,1,2.89133-2.7496Z" transform="translate(-42.88192 -165.38187)"/><path class="cls-3" d="M319.6,480.878l-18.737-15.222a2.778,2.778,0,1,1,3.96851-3.88345Z" transform="translate(-42.88192 -165.38187)"/><path class="cls-3" d="M297.06457,490.2323l-2.778-23.98111a2.77921,2.77921,0,1,1,5.5559,0Z" transform="translate(-42.88192 -165.38187)"/><path class="cls-3" d="M274.75591,481.55829l14.485-19.33231a2.76836,2.76836,0,1,1,4.0252,3.79843Z" transform="translate(-42.88192 -165.38187)"/><path class="cls-3" d="M264.46615,457.804l24.00944-2.52283a2.76564,2.76564,0,1,1-.0567,5.52756Z" transform="translate(-42.88192 -165.38187)"/><path class="cls-3" d="M274.04725,434.9l18.737,15.22205a2.7679,2.7679,0,1,1-3.94016,3.88345Z" transform="translate(-42.88192 -165.38187)"/><path class="cls-4" d="M297.80157,165.38187c38.63621,0,78.43464,9.35437,109.30394,24.43469l-11.65039,23.30078c-30.189-12.07562-63.24094-21.42993-97.65355-21.42993-34.44094,0-67.15274,9.29761-97.22834,21.25983l-11.59369-23.15906c26.44724-12.81262,70.15748-24.40631,108.822-24.40631Z" transform="translate(-42.88192 -165.38187)"/><path class="cls-3" d="M297.80157,217.96457c30.189,0,59.21574,8.41888,85.833,18.76532l-11.82047,23.641c-23.0173-8.64569-48.04724-16.10083-74.01258-16.10083-25.9937,0-50.7118,7.39844-73.61574,15.95911l-11.82047-23.641c26.50394-10.26142,55.21889-18.6236,85.43621-18.6236Z" transform="translate(-42.88192 -165.38187)"/><path class="cls-3" d="M413.31336,203.2811l4.16693-8.22046A255.06553,255.06553,0,0,1,553.11808,420.5c0,140.91025-114.20786,255.11813-255.11807,255.11813-140.88188,0-255.11809-114.20788-255.11809-255.11813A255.0732,255.0732,0,0,1,178.57639,195.03226l4.252,8.30554C102.1827,247.13309,52.15121,328.34567,52.15121,420.5c0,135.77954,110.06928,245.84885,245.8488,245.84885S543.84879,556.27954,543.84879,420.5c0-91.81418-50.08819-173.59372-130.53543-217.2189Z" transform="translate(-42.88192 -165.38187)"/></svg>