<svg id="Layer_1" data-name="Layer 1" xmlns="http://www.w3.org/2000/svg" viewBox="0 0 510.23616 510.23627"><defs><style>.cls-1{fill:#044f9f;}.cls-1,.cls-2,.cls-3{fill-rule:evenodd;}.cls-2{fill:#f1934b;}.cls-3{fill:#ec1e26;}.cls-4{fill:#fff;}</style></defs><path class="cls-1" d="M299.9875,162.1362c140.91022,0,255.11807,114.23627,255.11807,255.11813,0,140.91025-114.20785,255.11814-255.11807,255.11814-140.88188,0-255.11809-114.20789-255.11809-255.11814,0-140.88186,114.23621-255.11813,255.11809-255.11813Z" transform="translate(-44.86941 -162.1362)"/><path class="cls-2" d="M270.73394,486.50473v-.42517a46.64454,46.64454,0,0,1-13.1244-15.874c-6.51968-12.69922-6.49133-22.73386-6.49133-36.90711V370.19922c0-6.80313-1.474-15.27872,5.18739-19.2189,7.02992-4.13858,12.926,1.5874,13.18111,9.60943l.11338,42.57642c0,.53857-.19842,4.56378,1.02048,4.45038.3685-.02835.11337-5.01734.11337-5.58426l-.02833-63.12754c.05669-8.44726,5.64094-14.93859,13.663-11.25357,6.00946,2.32444,4.79056,11.76377,4.79056,18.56693,0,18.4819-.34017,41.01733.45353,58.87561.02835.59528.085,2.06927.4252,2.296a.654.654,0,0,0,.48189.02835c.62363-.19842.28347-10.063.28347-15.44882V342.87323c0-7.54013-2.49448-19.0488,5.86772-22.47873a9.24688,9.24688,0,0,1,10.77165,3.1181c2.60788,3.37323,1.81418,7.99372,1.78583,12.10395-.02835,20.2677-.28348,40.56378-.08506,60.85986.02835,2.863.08506,5.7543.17008,8.61731a16.04512,16.04512,0,0,0,.22677,2.126c0,.0567.48191.19842.652,0,.34015-.42521.17008-1.81418.19843-2.32441.085-2.8063.14172-5.64093.14172-8.44726.08505-7.852.02835-15.70392-.02835-23.55591-.02832-7.02991-.085-14.05981-.11337-21.1181-.02835-4.64881-.08506-9.38269.02835-14.05982.19842-5.92444,3.45825-10.99844,9.18423-11.08349a9.10019,9.10019,0,0,1,7.39844,3.6567c3.79843,4.90394,2.3244,17.43308,2.3244,23.726,0,24.32126-1.02048,48.69922-.4252,72.99212v.08506c0,.48187-.02835,1.75747.0567,2.57952h.737l.4252-39.45828v-.1134c.59528-8.47559,8.73072-13.011,15.137-7.76691,5.32913,4.39368,3.685,13.94647,3.685,20.2677,0,13.94647.17007,27.92127,0,41.89609-.25513,18.85037-9.49607,35.60315-24.26456,44.90079v18.6803H270.73394Z" transform="translate(-44.86941 -162.1362)"/><path class="cls-2" d="M267.75757,562.10474a23.81818,23.81818,0,0,1-6.3496-.085c-17.94331-12.64251-32.485-.87875-52.49763,20.49448,3.03306-2.23938,10.23306-6.74646,16.21417-5.86771,38.948,5.58426,27.9496-13.35119,42.63306-12.81259Zm-63.8929-255.20316a12.75822,12.75822,0,0,0,2.8063-1.6441c5.2441-10.09131,14.20157-8.53229,27.66614-4.08185-1.81418-.22681-6.06615-.53864-8.44725,1.474-14.37164,12.04724-15.25038,1.10547-21.65669,5.01733Zm-19.559,23.66931a15.1904,15.1904,0,0,0,2.72125-2.83465c3.03308-13.37952,13.77638-14.68348,30.52914-14.2016-2.15434.36853-7.115,1.474-9.24095,4.59216-12.95433,18.76532-17.17795,6.51965-23.35748,13.20941ZM168.34656,363.226a18.25191,18.25191,0,0,0,2.29607-4.0252c-.17008-16.01575,11.56534-20.83463,30.47243-25.56849-2.32441,1.07715-7.56851,3.88349-9.1559,8.05039-9.46772,25.17166-17.51811,12.72757-22.67717,22.16693Zm-5.15906,37.70081a20.88257,20.88257,0,0,0,1.10552-4.59213c-4.47874-15.3638,5.52756-23.69764,22.50709-34.21418-1.95591,1.78583-6.26458,6.15119-6.66143,10.65827-2.3811,27.21261-13.49291,17.7449-15.90235,28.48819Zm2.211,39.37323a23.62306,23.62306,0,0,0,.0567-5.10236c-8.4189-14.68347-.02835-26.22049,15.052-41.98111-1.58738,2.40946-5.04565,8.16379-4.337,12.98267,4.16693,28.97009-9.69448,22.30865-9.58109,34.1575Zm11.25354,43.14331a22.42915,22.42915,0,0,0-.96378-5.27246c-11.5937-13.18109-5.24409-27.01416,7.17166-46.74329-1.16221,2.83463-3.54332,9.58109-1.87086,14.37164,10.03463,28.88505-5.55591,25.22837-3.08977,37.41733Zm15.222,26.022a27.768,27.768,0,0,0-1.07716-5.8677c-12.86928-14.65512-5.811-29.96222,7.96536-51.90238-1.27559,3.17481-3.71339,10.54489-2.09764,15.95908,10.60158,35.23465-6.15118,28.03464-3.42992,41.55591Zm33.789,28.34647a23.20921,23.20921,0,0,0-3.79841-4.50708c-18.34015-5.41419-19.70079-22.76221-18.4252-49.7197.4252,3.48661,1.92756,11.31024,5.98111,15.08032,26.44723,24.63306,8.33386,27.89292,17.31968,38.126Zm40.56378,17.2063a24.6179,24.6179,0,0,0-5.1307-3.6c-20.66457-.2551-26.47559-18.11337-31.94646-46.82834,1.33229,3.54331,4.904,11.3386,10.11969,14.11655,33.9874,18.05667,15.789,26.84409,27.80786,34.92282Zm21.62835,6.548c-36.652,0-69.84566-16.69607-93.85511-43.65353-24.00944-26.98584-38.863-64.2331-38.863-105.3638s14.85355-78.40628,38.863-105.3638a138.26991,138.26991,0,0,1,19.75748-18.28345c1.81418-3.42993,1.89922-8.44726,15.1937-10.31811,3.03308-.42518,5.86772-3.94019,7.00157-5.49921-6.63307,13.60626-10.00629,20.041-21.34488,18.1701a6.47037,6.47037,0,0,0-.70865-.0567,134.23822,134.23822,0,0,0-18.59528,17.348c-23.69764,26.61731-38.35275,63.3827-38.35275,104.00315S171.6064,489.93466,195.304,516.552c23.66928,26.589,56.40944,43.05826,92.55117,43.05826ZM202.7875,293.437a14.24243,14.24243,0,0,1,1.78583-2.863c9.97795-4.64881,9.43936-14.57007,6.71811-29.67872.02835,2.01258-.14174,6.66138-2.23936,9.04248-12.75591,14.37171-2.63624,16.4693-6.94489,23.01734ZM182.945,310.615a15.227,15.227,0,0,1,2.01259-3.14648c10.91339-5.1023,10.31811-15.98737,7.34173-32.54169.02835,2.211-.14172,7.285-2.46614,9.92126-13.9748,15.73224-2.89134,18.0567-7.6252,25.22834Zm-13.35118,19.36066a17.38225,17.38225,0,0,1,1.21889-4.13861c10.34646-9.38269,6.463-21.03309-1.78582-38.041.68031,2.40949,2.04094,8.022.28347,11.67877-10.45985,22.05353,2.29605,20.69287-.68033,30.16062Zm-8.13544,23.4992a20.653,20.653,0,0,1,.22678-4.7622c8.64567-13.09607,1.474-24.34961-11.65039-39.96851,1.33228,2.3244,4.19527,7.90863,3.28818,12.33069-5.47086,26.64569,7.76693,21.34491,7.02992,32.34332Zm-7.88031,22.93225a19.81451,19.81451,0,0,1-.87874-4.6488c5.32913-15.02362-4.16693-23.98108-20.52283-35.60315,1.84252,1.92755,5.92441,6.548,6.06614,11.05512.82205,27.29766,12.44409,18.59527,14.22992,29.452Zm-1.81417,24.548a18.80346,18.80346,0,0,1-1.84252-4.30866c1.92756-15.959-9.26929-22.252-27.66614-29.39526,2.211,1.389,7.17165,4.84723,8.27716,9.21259,6.71811,26.33386,16.12914,14.93859,20.23937,25.02993Zm.652,25.71026a20.87094,20.87094,0,0,1-3.20315-3.99685c-2.46614-17.65985-16.18582-20.66458-37.81416-22.19528,2.7496.76535,9.01417,2.8063,11.452,7.0866,14.62677,25.82364,21.40157,10.57325,28.62991,19.98426Zm6.74646,33.59055a23.28862,23.28862,0,0,1-3.6-4.50708c-2.80629-19.98425-18.31181-23.38583-42.80314-25.115,3.11811.85037,10.20472,3.17481,12.95433,8.022,16.55433,29.25354,24.23621,11.96222,32.42834,22.62049Zm10.91339,27.24094a21.77247,21.77247,0,0,1-4.30867-3.77008c-5.95275-19.13385-21.77007-19.58741-46.148-16.69605,3.1748.2551,10.34646,1.389,14.03149,5.47086,23.811,26.61734,25.76693,7.22836,35.54646,16.18582Zm13.63464,23.66931a21.26475,21.26475,0,0,1-4.96063-2.863c-9.29763-17.9433-25.22834-15.137-49.09606-7.22833,3.2315-.39685,10.62992-.737,14.99528,2.57953,28.51653,21.74173,27.07086,1.9559,38.40945,8.90079Zm22.81889,23.24408a23.47984,23.47984,0,0,1-5.83937-2.3244c-12.7559-17.97165-29.70707-12.189-54.62361.4819,3.48661-.99213,11.48032-2.60788,16.75275.28345,34.27087,18.8504,29.79213-2.49448,43.2,3.14645Zm27.24094,17.54648a22.4668,22.4668,0,0,1-6.12283-1.13388c-15.50551-15.2504-31.26613-6.32126-53.68818,10.91339,3.25985-1.64411,10.85669-4.76221,16.526-2.91968,36.822,11.99054,28.91339-8.16379,43.02992-5.18741Z" transform="translate(-44.86941 -162.1362)"/><path class="cls-2" d="M332.21742,562.10474a23.818,23.818,0,0,0,6.34958-.085c17.94333-12.64251,32.485-.87875,52.526,20.49448-3.06143-2.23938-10.26141-6.74646-16.24252-5.86771-38.948,5.58426-27.94962-13.35119-42.63306-12.81259ZM396.1103,306.90158a12.75845,12.75845,0,0,1-2.8063-1.6441c-5.24408-10.09131-14.20157-8.53229-27.66614-4.08185,1.84253-.22681,6.06616-.53864,8.44727,1.474,14.37164,12.04724,15.25039,1.10547,21.65667,5.01733Zm19.55905,23.66931a17.24783,17.24783,0,0,1-2.72125-2.83465c-3.03308-13.37952-13.77637-14.68348-30.52911-14.2016,2.15433.36853,7.115,1.474,9.26929,4.59216,12.926,18.76532,17.14959,6.51965,23.32913,13.20941ZM431.62843,363.226a18.25075,18.25075,0,0,1-2.29608-4.0252c.17007-16.01575-11.537-20.83463-30.47244-25.56849,2.32443,1.07715,7.59686,3.88349,9.15591,8.05039,9.46771,25.17166,17.5181,12.72757,22.67716,22.16693Zm5.18738,37.70081a19.44531,19.44531,0,0,1-1.13385-4.59213c4.47873-15.3638-5.52756-23.69764-22.47873-34.21418,1.92755,1.78583,6.26456,6.15119,6.63306,10.65827,2.3811,27.21261,13.49292,17.7449,15.90237,28.48819ZM434.57646,440.3a21.94215,21.94215,0,0,1-.02835-5.10236c8.39053-14.68347.02835-26.22049-15.052-41.98111,1.5874,2.40946,5.01733,8.16379,4.30865,12.98267-4.16693,28.97009,9.69449,22.30865,9.58112,34.1575Zm-11.25354,43.14331a23.97871,23.97871,0,0,1,.96377-5.27246c11.59369-13.18109,5.24408-27.01416-7.17166-46.74329,1.1622,2.83463,3.54331,9.58109,1.8992,14.37164-10.063,28.88505,5.52756,25.22837,3.08979,37.41733Zm-15.19373,26.022a26.03414,26.03414,0,0,1,1.04883-5.8677c12.86929-14.65512,5.811-29.96222-7.96536-51.90238,1.30395,3.17481,3.71341,10.54489,2.09766,15.95908-10.6016,35.23465,6.17953,28.03464,3.4299,41.55591ZM374.3119,537.81183a23.20916,23.20916,0,0,1,3.7984-4.50708c18.34018-5.41419,19.70081-22.76221,18.4252-49.7197-.4252,3.48661-1.92755,11.31024-5.98111,15.08032-26.41888,24.63306-8.33383,27.89292-17.31967,38.126Zm-40.56378,17.2063a25.38471,25.38471,0,0,1,5.13071-3.6c20.66455-.2551,26.47558-18.11337,31.94644-46.82834-1.33228,3.54331-4.87558,11.3386-10.09134,14.11655-34.01575,18.05667-15.81732,26.84409-27.83621,34.92282Zm-21.6,6.548c36.652,0,69.81733-16.69607,93.85511-43.65353,24.00946-26.98584,38.83465-64.2331,38.83465-105.3638s-14.82519-78.40628-38.83465-105.3638a138.47373,138.47373,0,0,0-19.78583-18.28345c-1.81415-3.42993-1.8992-8.44726-15.1937-10.31811-3.03305-.42518-5.83935-3.94019-7.00155-5.49921,6.63305,13.60626,10.00628,20.041,21.34488,18.1701a6.96973,6.96973,0,0,1,.737-.0567,135.65306,135.65306,0,0,1,18.56692,17.348c23.69763,26.61731,38.35275,63.3827,38.35275,104.00315S428.36857,489.93466,404.67094,516.552c-23.66928,26.589-56.3811,43.05826-92.52283,43.05826ZM397.21583,293.437a15.77485,15.77485,0,0,0-1.81418-2.863c-9.978-4.64881-9.43936-14.57007-6.7181-29.67872-.02836,2.01258.14172,6.66138,2.23937,9.04248,12.75589,14.37171,2.6362,16.4693,6.97321,23.01734ZM417.03,310.615a16.377,16.377,0,0,0-1.98425-3.14648c-10.91336-5.1023-10.34644-15.98737-7.37006-32.54169-.02835,2.211.17008,7.285,2.46613,9.92126,13.97482,15.73224,2.89135,18.0567,7.62521,25.22834Zm13.3512,19.36066a17.3823,17.3823,0,0,0-1.21891-4.13861c-10.34646-9.38269-6.463-21.03309,1.78583-38.041-.68033,2.40949-2.0126,8.022-.28348,11.67877,10.45987,22.05353-2.29605,20.69287.70868,30.16062Zm8.13543,23.4992a20.653,20.653,0,0,0-.22677-4.7622c-8.61734-13.09607-1.474-24.34961,11.67874-39.96851-1.36063,2.3244-4.22363,7.90863-3.31653,12.33069,5.47086,26.64569-7.76694,21.34491-7.02994,32.34332Zm7.88031,22.93225a19.815,19.815,0,0,0,.87873-4.6488c-5.32913-15.02362,4.19528-23.98108,20.52285-35.60315-1.84252,1.92755-5.9244,6.548-6.06616,11.05512-.82205,27.29766-12.44409,18.59527-14.22992,29.452Zm1.81418,24.548a17.63785,17.63785,0,0,0,1.8425-4.30866c-1.92755-15.959,9.26929-22.252,27.66614-29.39526-2.211,1.389-7.14331,4.84723-8.27716,9.21259-6.71811,26.33386-16.12912,14.93859-20.23935,25.02993Zm-.652,25.71026a20.87061,20.87061,0,0,0,3.20316-3.99685c2.46613-17.65985,16.18582-20.66458,37.81415-22.19528-2.7496.76535-9.01416,2.8063-11.452,7.0866-14.62677,25.82364-21.40155,10.57325-28.62991,19.98426Zm-6.74646,33.59055a23.42222,23.42222,0,0,0,3.62836-4.50708c2.778-19.98425,18.3118-23.38583,42.77478-25.115-3.08975.85037-10.20471,3.17481-12.926,8.022-16.55435,29.25354-24.23624,11.96222-32.42835,22.62049Zm-10.885,27.24094a22.443,22.443,0,0,0,4.28034-3.77008c5.95273-19.13385,21.77-19.58741,46.17636-16.69605-3.20316.2551-10.37482,1.389-14.03149,5.47086-23.83939,26.61734-25.79529,7.22836-35.5748,16.18582Zm-13.663,23.66931a21.26475,21.26475,0,0,0,4.96063-2.863c9.29764-17.9433,25.22837-15.137,49.09607-7.22833-3.2315-.39685-10.60159-.737-14.99527,2.57953-28.51654,21.74173-27.07086,1.9559-38.40945,8.90079Zm-22.81888,23.24408a23.47962,23.47962,0,0,0,5.83936-2.3244c12.75592-17.97165,29.70709-12.189,54.62362.4819-3.48663-.99213-11.48031-2.60788-16.72442.28345-34.2992,18.8504-29.82047-2.49448-43.2,3.14645Zm-27.24093,17.54648a22.46687,22.46687,0,0,0,6.12283-1.13388c15.53384-15.2504,31.26611-6.32126,53.68817,10.91339-3.25986-1.64411-10.85669-4.76221-16.526-2.91968-36.822,11.99054-28.91339-8.16379-43.02994-5.18741Z" transform="translate(-44.86941 -162.1362)"/><path class="cls-1" d="M298.82528,420.85434a33.789,33.789,0,1,1-33.789,33.789,33.77654,33.77654,0,0,1,33.789-33.789Z" transform="translate(-44.86941 -162.1362)"/><path class="cls-2" d="M298.82528,450.87323a3.77008,3.77008,0,1,1-3.77008,3.77008,3.78668,3.78668,0,0,1,3.77008-3.77008Z" transform="translate(-44.86941 -162.1362)"/><path class="cls-2" d="M298.57017,422.3l2.778,23.98111a2.76551,2.76551,0,1,1-5.52758,0Z" transform="translate(-44.86941 -162.1362)"/><path class="cls-2" d="M320.87883,430.974l-14.4567,19.33227a2.72761,2.72761,0,0,1-3.99686.17008,2.69458,2.69458,0,0,1-.02835-3.96851Z" transform="translate(-44.86941 -162.1362)"/><path class="cls-2" d="M331.16859,454.72836l-24.00946,2.52283a2.69351,2.69351,0,0,1-2.83462-2.778,2.73177,2.73177,0,0,1,2.89132-2.74961Z" transform="translate(-44.86941 -162.1362)"/><path class="cls-2" d="M321.58748,477.63229l-18.737-15.222a2.778,2.778,0,1,1,3.9685-3.88346Z" transform="translate(-44.86941 -162.1362)"/><path class="cls-2" d="M299.05206,486.98663l-2.77795-23.98111a2.77921,2.77921,0,1,1,5.55589,0Z" transform="translate(-44.86941 -162.1362)"/><path class="cls-2" d="M276.74341,478.31262l14.485-19.3323a2.76836,2.76836,0,1,1,4.02519,3.79843Z" transform="translate(-44.86941 -162.1362)"/><path class="cls-2" d="M266.45364,454.55829l24.00945-2.52283a2.76564,2.76564,0,1,1-.05671,5.52756Z" transform="translate(-44.86941 -162.1362)"/><path class="cls-2" d="M276.03474,431.65436l18.737,15.222a2.7679,2.7679,0,1,1-3.94015,3.88346Z" transform="translate(-44.86941 -162.1362)"/><path class="cls-3" d="M299.78906,162.1362c38.63621,0,78.43465,9.35437,109.30394,24.43469l-11.65039,23.30078c-30.189-12.07562-63.24094-21.42993-97.65355-21.42993-34.44093,0-67.15274,9.29761-97.22833,21.25983L190.967,186.54251c26.44723-12.81262,70.15747-24.40631,108.822-24.40631Z" transform="translate(-44.86941 -162.1362)"/><path class="cls-2" d="M299.78906,214.7189c30.189,0,59.21574,8.41889,85.83305,18.76532l-11.82046,23.641c-23.01731-8.64569-48.04724-16.10083-74.01259-16.10083-25.9937,0-50.71179,7.39844-73.61574,15.95911l-11.82046-23.641c26.50393-10.26141,55.21888-18.6236,85.4362-18.6236Z" transform="translate(-44.86941 -162.1362)"/><path class="cls-4" d="M267.24734,616.92679l5.1874,1.474a10.98667,10.98667,0,0,1-3.96851,6.03778,11.9942,11.9942,0,0,1-7.05826,1.9559,11.81748,11.81748,0,0,1-8.674-3.34488c-2.26773-2.23935-3.40158-5.27243-3.40158-9.15588,0-4.11026,1.13385-7.28507,3.40158-9.55277a12.274,12.274,0,0,1,9.01416-3.40158,11.57834,11.57834,0,0,1,7.88033,2.66458,9.55892,9.55892,0,0,1,2.72125,4.56379l-5.30078,1.1622a5.18772,5.18772,0,0,0-1.95592-3.03308,5.93289,5.93289,0,0,0-3.62834-1.1055,6.20407,6.20407,0,0,0-4.79054,1.98425c-1.21891,1.30392-1.84253,3.40155-1.84253,6.34958,0,3.08978.62362,5.32916,1.81417,6.63308a6.06374,6.06374,0,0,0,4.70551,1.98426,5.68162,5.68162,0,0,0,3.685-1.24726,7.36038,7.36038,0,0,0,2.211-3.9685Zm9.77953,9.07086V601.39294h5.35747v9.69449h10.45985v-9.69449h5.35747v24.60471h-5.35747V615.226H282.38434v10.77164Zm26.73071-24.60471h9.77951a20.75261,20.75261,0,0,1,5.04569.45353,9.10719,9.10719,0,0,1,3.96847,2.26773,10.57858,10.57858,0,0,1,2.52286,3.99685,16.49946,16.49946,0,0,1,.87872,5.811,15.19967,15.19967,0,0,1-.822,5.24411,10.43026,10.43026,0,0,1-2.83463,4.337,9.16883,9.16883,0,0,1-3.74172,1.95591,16.45676,16.45676,0,0,1-4.73386.53857h-10.063Zm5.3858,4.13858v16.2992h3.96851a16.79576,16.79576,0,0,0,3.23151-.22675,4.9223,4.9223,0,0,0,2.15432-1.02047,4.99767,4.99767,0,0,0,1.389-2.38111,14.79126,14.79126,0,0,0,.53857-4.50708,13.44562,13.44562,0,0,0-.53857-4.36535,4.94843,4.94843,0,0,0-3.96851-3.54331,23.99223,23.99223,0,0,0-4.3937-.25513Zm21.37323,20.46613V601.39294h19.61576v4.13858H335.8741v5.47086h13.26614v4.16693H335.8741v6.66141h14.76849v4.16693Z" transform="translate(-44.86941 -162.1362)"/><path class="cls-4" d="M192.61113,602.52679l-2.89135-3.1748a9.30951,9.30951,0,0,1,5.32914-2.863,8.88988,8.88988,0,0,1,5.69764,1.389,9.1032,9.1032,0,0,1,4.50708,5.98108,11.11855,11.11855,0,0,1-1.64408,8.13544c-1.78583,3.03308-3.94016,4.93228-6.49135,5.66931a9.2939,9.2939,0,0,1-7.65354-1.10553,8.65564,8.65564,0,0,1-4.252-5.15906,8.2553,8.2553,0,0,1,.11339-4.45038l4.13858,1.27558a4.32431,4.32431,0,0,0,2.04094,5.30078,4.77081,4.77081,0,0,0,4.13858.4819c1.389-.4819,2.74961-1.78583,4.02521-3.96851,1.33228-2.296,1.87087-4.16693,1.61574-5.64093a4.61912,4.61912,0,0,0-2.35275-3.34491,4.42565,4.42565,0,0,0-3.08977-.56692,6.67918,6.67918,0,0,0-3.23149,2.04095Zm-3.00473-10.62991-12.35906,17.0929-12.64251-9.12757,2.09764-2.89132,9.18425,6.63308,2.7496-3.79843L170.0757,593.626l2.09764-2.89133,8.53227,6.1795,3.34489-4.62045-9.52441-6.88818,2.09764-2.89136Zm-16.12912-11.537-13.94647,15.81733-3.08976-2.72126L159.2757,577.1,149.92137,587.73l-2.948-2.63623,13.91811-15.81732,3.20314,2.83465-2.7496,16.0441,9.18425-10.40317Zm-19.2756-17.71652-12.78425,11.99054,4.28031,4.56378-2.60787,2.43781-11.42362-12.189,2.57953-2.46612,4.252,4.53543L151.282,559.52521Zm-9.21259-9.77954L128.293,565.76144l-9.52442-12.35907,2.80631-2.18267,6.94488,8.95749,3.71338-2.863-6.463-8.33386,2.83464-2.18268,6.43465,8.36218,4.53543-3.51495-7.2-9.29764,2.83465-2.18268Zm-12.10394-15.73227-17.82992,11.22519-4.79055-7.56851a15.7755,15.7755,0,0,1-2.126-4.47873,4.85344,4.85344,0,0,1,.39685-3.14646,5.91162,5.91162,0,0,1,2.32441-2.5512,5.49684,5.49684,0,0,1,4.05354-.90708,6.54354,6.54354,0,0,1,3.85511,2.46616,9.15593,9.15593,0,0,1,.31182-2.863,23.12863,23.12863,0,0,1,1.5874-3.8551l2.126-4.36536,2.72126,4.30866-2.29606,5.04565a35.69679,35.69679,0,0,0-1.41732,3.54331,3.6642,3.6642,0,0,0-.0567,1.55908,6.992,6.992,0,0,0,.96379,1.92755l.45354.737,7.45512-4.67716Zm-12.55748,2.863L118.65523,537.33a16.3817,16.3817,0,0,0-2.26771-3.08979,2.361,2.361,0,0,0-1.389-.53857,2.719,2.719,0,0,0-1.5874.48187,2.527,2.527,0,0,0-1.13386,1.389,2.626,2.626,0,0,0,.14173,1.78583c.14173.34018.68031,1.2189,1.5874,2.69293l1.78583,2.8063ZM114.20484,504.278,94.5324,511.81812,89.345,498.29688l3.31653-1.27561,3.6567,9.55277,4.67716-1.81418-3.1748-8.24881,3.34488-1.27561,3.1748,8.24884,8.33386-3.20315ZM97.62216,490.98349a13.56278,13.56278,0,0,1-5.47086.51022,9.40941,9.40941,0,0,1-3.31654-1.13385,7.874,7.874,0,0,1-2.55118-2.126A11.42758,11.42758,0,0,1,84.271,484.067a9.95614,9.95614,0,0,1,.82205-7.96537c1.36063-2.296,3.71339-3.9118,7.02992-4.81891,3.28819-.90707,6.09449-.70864,8.44725.56693a9.74762,9.74762,0,0,1,4.7622,6.378,9.98237,9.98237,0,0,1-.7937,7.99371c-1.36063,2.29605-3.6567,3.88346-6.91654,4.76221Zm-1.27559-4.19528a7.89853,7.89853,0,0,0,4.79055-3.03308,5.34186,5.34186,0,0,0,.68032-4.53543A5.416,5.416,0,0,0,98.9261,475.648a8.17121,8.17121,0,0,0-5.75433-.11337c-2.32441.65194-3.94016,1.64407-4.79055,2.97638a5.31235,5.31235,0,0,0-.59528,4.56378,5.37945,5.37945,0,0,0,2.863,3.6c1.44568.737,3.34489.76539,5.69764.11341Zm5.04567-21.71338-20.778,3.57165-1.50236-8.84411a14.99654,14.99654,0,0,1-.28346-4.93228,4.79768,4.79768,0,0,1,1.58739-2.74961,5.82867,5.82867,0,0,1,3.11811-1.474,5.49007,5.49007,0,0,1,4.11024.70865,6.608,6.608,0,0,1,2.60787,3.77008,9.4205,9.4205,0,0,1,1.36063-2.55117,26.2153,26.2153,0,0,1,2.97638-2.948l3.6-3.23151.87874,5.01733-4.0252,3.77009a31.78591,31.78591,0,0,0-2.66456,2.7496,3.18848,3.18848,0,0,0-.652,1.41733,6.80554,6.80554,0,0,0,.14173,2.15432l.14173.85038,8.674-1.474ZM88.693,462.9205l-.53858-3.08978a16.30337,16.30337,0,0,0-.90709-3.74173,2.34928,2.34928,0,0,0-1.07716-1.02048,2.74429,2.74429,0,0,0-1.61575-.14172,2.49708,2.49708,0,0,0-1.61575.8504,2.55,2.55,0,0,0-.53858,1.70078c0,.3685.17008,1.389.45354,3.08975l.56693,3.25986Zm7.937-35.348-21.08976-.70865.14173-4.28033,8.30551.28347.28346-8.30551-8.30551-.28345.17008-4.252,21.06142.70865-.14174,4.28033-9.21259-.34014-.28347,8.30548,9.2126.31182ZM76.30563,403.30789l.56693-4.25195,11.31023,1.5307a22.64675,22.64675,0,0,0,3.515.3118,3.40632,3.40632,0,0,0,2.23937-.99213,4.47385,4.47385,0,0,0,1.16221-2.66458,4.412,4.412,0,0,0-.36851-2.778,2.9666,2.9666,0,0,0-1.67244-1.33228,28.75805,28.75805,0,0,0-3.515-.652l-11.5937-1.559.59528-4.22363,10.97008,1.474a28.2897,28.2897,0,0,1,5.27244,1.04883,5.8583,5.8583,0,0,1,2.46614,1.61575,6.13864,6.13864,0,0,1,1.389,2.66458,10.807,10.807,0,0,1,.085,4.11023,11.40468,11.40468,0,0,1-1.30393,4.422,6.64241,6.64241,0,0,1-2.126,2.211,6.10873,6.10873,0,0,1-2.46614.8504,25.55294,25.55294,0,0,1-5.35748-.28348Zm23.69764-18.4252-20.49449-4.904,1.474-6.23621,14.88188-.31179-13.12441-7.00159,1.50237-6.20786,20.49448,4.90393L103.83,368.952l-16.15748-3.85514,15.16535,7.937-.93543,3.96848-17.12126.1701,16.12913,3.88346ZM112.419,342.95828l-1.53071,4.337-5.1307.14172-2.778,7.99368,3.9685,3.23151-1.50236,4.28034L88.23949,348.25906l1.474-4.25195Zm-10.45984,4.62049-8.33386.19842,6.43465,5.24408Zm11.79212-6.74646-19.1622-8.81577,1.72914-3.77008,16.46929-1.9559-12.8126-5.92438,1.64409-3.57165,19.13386,8.81573-1.78583,3.88345-16.15748,1.95591,12.58583,5.811Zm9.55276-19.02051L105.134,311.15353l2.15433-3.685,18.19843,10.68664Zm6.97323-11.25354-14.68346-9.60944-3.40158,5.24408-3.00473-1.95587,9.15591-14.00317,3.00472,1.95593-3.40157,5.18738,14.65512,9.60943Zm18.19842-24.1228-2.863,3.57165-4.90394-1.55908-5.27244,6.60473,2.66457,4.36536-2.83464,3.54328L123.89933,283.374,126.734,279.859Zm-11.39527.87872-7.937-2.57953,4.30867,7.08661Zm13.26613-2.52283-15.137-14.68347,6.23621-6.43463a15.08222,15.08222,0,0,1,3.85512-3.1181,4.75672,4.75672,0,0,1,3.14646-.36854,6.40005,6.40005,0,0,1,3.03307,1.64411,5.63142,5.63142,0,0,1,1.84252,3.7417,6.61927,6.61927,0,0,1-1.50236,4.337,9.655,9.655,0,0,1,2.863-.39685,24.20972,24.20972,0,0,1,4.13858.652L163.556,271.185l-3.5433,3.65674-5.44252-1.02051a30.26544,30.26544,0,0,0-3.77008-.53858,3.5917,3.5917,0,0,0-1.53071.31183,7.39522,7.39522,0,0,0-1.67244,1.389l-.59528.6236,6.32126,6.12286Zm-5.75432-11.537,2.18267-2.23938a14.8,14.8,0,0,0,2.49449-2.948,2.215,2.215,0,0,0,.17008-1.474,2.633,2.633,0,0,0-.822-1.41736,2.71989,2.71989,0,0,0-1.64409-.7937,2.59969,2.59969,0,0,0-1.70079.59527,26.22454,26.22454,0,0,0-2.211,2.18268l-2.32441,2.3811Zm21.03306-3.2882L151.934,253.89371l3.25985-2.74964,13.663,16.04413Zm21.515-17.12128-3.62835,2.80633-4.39369-2.69293-6.68977,5.18738,1.55905,4.87561-3.57165,2.74957-6.43464-21.685,3.57165-2.778Zm-11.28189-1.84253-7.115-4.39368,2.52284,7.90863Zm13.46456.62366-10.3748-18.34015,3.6-2.041,14.51338,8.022-6.94488-12.30237,3.42991-1.92755,10.3748,18.34015-3.71338,2.126-14.25827-7.88031,6.80317,12.07563Z" transform="translate(-44.86941 -162.1362)"/><path class="cls-4" d="M414.904,227.985l6.51969,4.252a13.97873,13.97873,0,0,1,3.1181,2.52283,6.93692,6.93692,0,0,1,1.61575,3.37323,8.91474,8.91474,0,0,1-.19842,3.94012,15.08611,15.08611,0,0,1-2.126,4.56378,14.43107,14.43107,0,0,1-3.00473,3.40161,9.27326,9.27326,0,0,1-3.9118,1.89917,7.6339,7.6339,0,0,1-3.42993-.22674,12.7814,12.7814,0,0,1-3.40155-1.67243l-6.68979-4.36535Zm1.64411,5.32916-7.62522,11.70709,2.63623,1.72913a12.48093,12.48093,0,0,0,2.26774,1.21887,3.74213,3.74213,0,0,0,1.8992.19842,4.06811,4.06811,0,0,0,2.041-1.10546,13.63253,13.63253,0,0,0,2.49448-2.97638,12.66985,12.66985,0,0,0,1.67245-3.40162,4.51186,4.51186,0,0,0,.11337-2.35272,4.0947,4.0947,0,0,0-1.10549-1.89923,17.59765,17.59765,0,0,0-2.80631-2.06927Zm5.38583,24.9165,13.15274-16.49762,12.189,9.75116-2.211,2.778-8.87247-7.05823-2.91968,3.65668,8.24881,6.57635-2.23935,2.778-8.22049-6.57636-3.57165,4.47876,9.18426,7.31335L434.4347,268.237Zm16.15747,13.01105,15.36377-14.45667,4.39371,4.67713-7.90866,12.58588,13.03937-7.115,4.3937,4.67719L452.0095,286.0386l-2.6929-2.863,12.07559-11.39533-14.93856,8.33387-2.80631-2.97638,9.26929-14.4-12.1323,11.36689Zm17.29132,18.82208,16.0441-13.69134,2.778,3.25982-16.0441,13.69135Zm6.06617,7.25666,17.31967-12.04725,2.35275,3.37323-6.63306,15.222,11.59369-8.07874,2.26773,3.23151L471.03,311.06851l-2.43777-3.48663,6.49133-14.9386L463.7166,300.552ZM473.893,315.774l18.34015-10.40314,2.126,3.71338-18.3685,10.40314Zm4.73385,8.16379,18.87873-9.43937,1.84253,3.71338L490.589,332.3l12.64252-6.32129,1.75748,3.515-18.85038,9.43936-1.89923-3.82678,8.56064-13.83307-12.38739,6.20789Zm20.296,26.64566,3.31653-1.27558,3.28821,8.56061-7.88031,3.00473a11.63584,11.63584,0,0,1-3.515-2.77792,14.35975,14.35975,0,0,1-2.74961-4.45041,11.47733,11.47733,0,0,1-.76535-5.89609,9.00287,9.00287,0,0,1,2.38111-4.87558,13.05757,13.05757,0,0,1,4.81891-3.14645,12.04961,12.04961,0,0,1,5.98107-.822,9.42582,9.42582,0,0,1,5.10239,2.35273,10.96288,10.96288,0,0,1,2.80628,4.337,10.22106,10.22106,0,0,1,.652,6.32123,7.378,7.378,0,0,1-3.25982,4.28034l-2.23938-3.65668a4.4894,4.4894,0,0,0,1.67242-2.43781,4.89482,4.89482,0,0,0-.2551-3.20315,5.65569,5.65569,0,0,0-3.2315-3.48661,7.55463,7.55463,0,0,0-5.49921.34015,8.42576,8.42576,0,0,0-4.67715,3.57166,5.58158,5.58158,0,0,0-.17011,4.76221,7.10794,7.10794,0,0,0,1.44568,2.296,8.56925,8.56925,0,0,0,2.0126,1.70077l2.49448-.96374Zm3.77009,49.91812-.79371-4.53543,4.45038-2.60788-1.44565-8.33387-5.01733-.90707-.76535-4.45038,22.16693,4.50708.76535,4.422Zm6.91653-9.09922,7.2-4.22363-8.16379-1.474Zm-7.02991,12.5575,21.03305-1.44568.28348,4.13858-13.52127,9.60947,14.11655-.96381.25509,3.94016-21.033,1.44568-.28348-4.252,13.2378-9.46771L502.8347,407.9ZM524.66148,428.111l-.652,7.73859a15.22635,15.22635,0,0,1-.737,3.96851,6.83512,6.83512,0,0,1-2.211,3.00473,9.09288,9.09288,0,0,1-3.57165,1.7008,15.496,15.496,0,0,1-5.01733.28345,13.72351,13.72351,0,0,1-4.422-1.02048,9.30731,9.30731,0,0,1-3.515-2.57953,7.22382,7.22382,0,0,1-1.41732-3.1181,12.01063,12.01063,0,0,1-.14173-3.77008l.6803-7.96536Zm-3.9118,3.96851-13.91812-1.1622-.25513,3.14645a12.86956,12.86956,0,0,0-.02835,2.55118,3.91313,3.91313,0,0,0,.737,1.78583,4.08653,4.08653,0,0,0,1.92755,1.2756,14.13271,14.13271,0,0,0,3.82678.76535,11.96741,11.96741,0,0,0,3.77008-.11337,4.966,4.966,0,0,0,2.126-1.02048,3.977,3.977,0,0,0,1.1622-1.87088,19.87672,19.87672,0,0,0,.51022-3.45825ZM498.83784,464.763l20.49451,4.93228L515.704,484.86066l-3.45825-.82206,2.6362-11.02676-4.56378-1.07718L507.852,482.16772l-3.45828-.822,2.46616-10.26141L501.304,469.752l-2.74961,11.42362-3.45828-.822Zm-4.67715,18.0567,7.99371,10.48819,11.67874-2.91968-1.61575,4.70551-7.31339,1.84253,4.56379,6.00943-1.64411,4.7055L500.482,498.0701l-12.78424,3.23151,1.70077-4.81891,8.27716-2.06931-5.21573-6.77478Zm-8.13544,21.40158,19.1622,8.81574-2.863,6.20788a22.79946,22.79946,0,0,1-2.40946,4.45038,5.63038,5.63038,0,0,1-3.14645,1.89923,6.53618,6.53618,0,0,1-4.22364-.62362,6.95562,6.95562,0,0,1-2.6929-1.98426,6.16629,6.16629,0,0,1-1.13385-2.49447,6.37849,6.37849,0,0,1,.02835-2.43781,23.47161,23.47161,0,0,1,1.55905-4.11023l1.16221-2.52286-7.22837-3.31652Zm14.1449,11.19684-5.47089-2.49447-.96377,2.09762a10.635,10.635,0,0,0-1.1055,3.17481,2.68661,2.68661,0,0,0,.39685,1.6441,2.95228,2.95228,0,0,0,3.28817,1.30392,3.01907,3.01907,0,0,0,1.58741-1.13385,21.62132,21.62132,0,0,0,1.389-2.72125Zm-23.15906,7.54016,17.6315,11.537L486.1103,547.563l-2.97638-1.9559,6.20789-9.49607-3.94019-2.55117-5.7543,8.81573-2.97638-1.9559,5.75433-8.81577-4.7622-3.1181-6.43466,9.83621-3.00473-1.9559Zm-11.25354,17.48978,16.49762,13.15274-5.61258,7.00159a15.1629,15.1629,0,0,1-3.51495,3.4866,4.66365,4.66365,0,0,1-3.08979.652,5.95427,5.95427,0,0,1-3.1748-1.33228,5.6717,5.6717,0,0,1-2.211-3.5433,6.65573,6.65573,0,0,1,1.07718-4.45041,9.98121,9.98121,0,0,1-2.80631.652,20.373,20.373,0,0,1-4.16693-.25513l-4.81887-.53858,3.1748-3.99685,5.49921.51022q2.93385.21264,3.82675.17011a3.35787,3.35787,0,0,0,1.474-.48191,6.36158,6.36158,0,0,0,1.5307-1.5307l.53857-.68033-6.88818-5.47085Zm6.85983,10.91339-1.98425,2.46613a17.52822,17.52822,0,0,0-2.18268,3.14645,2.27968,2.27968,0,0,0-.02835,1.50238,2.64128,2.64128,0,0,0,.96381,1.33228,2.53549,2.53549,0,0,0,1.70077.62362,2.70238,2.70238,0,0,0,1.64411-.737c.25509-.25509.90707-1.0488,1.98425-2.38107l2.06927-2.60788Zm-24.20785,9.92123,12.55746,12.189,4.36536-4.47876,2.55118,2.49451-11.65039,12.01889-2.55118-2.49448,4.337-4.45041-12.58581-12.21731Zm-10.09134,10.03467,14.45669,15.36377-3.11813,2.91968L435.20006,574.237Zm-1.84253,11.19684-3.03308,2.863a5.1732,5.1732,0,0,0-3.0614-1.50238,4.71792,4.71792,0,0,0-3.03308,1.13388,4.514,4.514,0,0,0-1.8992,2.55118,2.67909,2.67909,0,0,0,.39685,2.2677,1.994,1.994,0,0,0,1.13385.737,3.4399,3.4399,0,0,0,1.75747-.22675c.51026-.17011,1.58741-.59528,3.25986-1.33231a11.7134,11.7134,0,0,1,5.074-1.27557,5.53275,5.53275,0,0,1,4.13858,2.18268,5.44162,5.44162,0,0,1,1.10549,2.948,5.505,5.505,0,0,1-.76535,3.31653,10.41013,10.41013,0,0,1-2.80627,3.08978c-2.09766,1.61572-4.02521,2.38107-5.78268,2.2677a6.25094,6.25094,0,0,1-4.53544-2.43781l3.28818-2.72125a3.57948,3.57948,0,0,0,2.35275,1.13385,4.17132,4.17132,0,0,0,2.55118-1.0488,4.883,4.883,0,0,0,1.81418-2.3811,1.62521,1.62521,0,0,0-1.55905-2.06931,10.45569,10.45569,0,0,0-3.96851,1.24726,20.72644,20.72644,0,0,1-4.53543,1.61575,6.18785,6.18785,0,0,1-3.14645-.28348,5.879,5.879,0,0,1-2.72125-2.15432,6.23287,6.23287,0,0,1-.48191-6.88819,12.13118,12.13118,0,0,1,3.17481-3.42993,9.2852,9.2852,0,0,1,5.98111-2.29605,8.01665,8.01665,0,0,1,5.30078,2.6929ZM414.904,590.3945l11.22519,17.85828-13.20944,8.30551-1.8992-3.00473,9.60944-6.03778-2.49448-3.96851-8.92914,5.61261-1.8992-3.03308,8.92911-5.61261-3.0614-4.81888-9.94962,6.23621-1.87085-3.00473Z" transform="translate(-44.86941 -162.1362)"/><path class="cls-2" d="M415.32921,200.03543l4.13858-8.22046A255.06554,255.06554,0,0,1,555.10557,417.25433c0,140.91025-114.20785,255.11814-255.11807,255.11814-140.88188,0-255.11809-114.20789-255.11809-255.11814A255.0732,255.0732,0,0,1,180.56389,191.78659l4.16693,8.22052C104.25523,243.689,54.1387,325.32678,54.1387,417.25433c0,135.77954,110.06928,245.84885,245.8488,245.84885S545.83629,553.03387,545.83629,417.25433c0-91.8992-50.0882-173.50863-130.50708-217.2189Z" transform="translate(-44.86941 -162.1362)"/></svg>