<svg xmlns="http://www.w3.org/2000/svg" xmlns:xlink="http://www.w3.org/1999/xlink" width="64" height="72.898" viewBox="0 0 64 72.898">
  <defs>
    <clipPath id="clip-path">
      <rect id="Rectangle_1350" data-name="Rectangle 1350" width="64" height="72.898" transform="translate(0 0)" fill="none"/>
    </clipPath>
  </defs>
  <g id="Group_3505" data-name="Group 3505" transform="translate(0 0)">
    <g id="Group_3492" data-name="Group 3492" clip-path="url(#clip-path)">
      <path id="Path_3144" data-name="Path 3144" d="M13.737,0A4.666,4.666,0,0,0,9.054,4.527V68.371A4.53,4.53,0,0,0,13.581,72.9H59.317a4.53,4.53,0,0,0,4.527-4.527V18.263L45.581,0Z" fill="#e2e5e7"/>
      <path id="Path_3145" data-name="Path 3145" d="M50.263,18.263H64L45.58,0V13.736a4.666,4.666,0,0,0,4.683,4.527" fill="#b0b7bd"/>
      <path id="Path_3146" data-name="Path 3146" d="M63.844,32,50.264,18.263h13.58Z" fill="#cad1d8"/>
      <path id="Path_3147" data-name="Path 3147" d="M54.79,59.317a2.4,2.4,0,0,1-2.341,2.341H2.341A2.4,2.4,0,0,1,0,59.317V36.527a2.4,2.4,0,0,1,2.341-2.342H52.6a2.4,2.4,0,0,1,2.341,2.342v22.79Z" fill="#f15642"/>
      <path id="Path_3148" data-name="Path 3148" d="M9.991,43.239a1.23,1.23,0,0,1,1.248-1.248h4.215a4.38,4.38,0,0,1,4.527,4.682A4.43,4.43,0,0,1,15.454,51.2H12.332v2.342a1.114,1.114,0,0,1-1.093,1.249,1.231,1.231,0,0,1-1.248-1.249v-10.3m2.341,1.093v4.527h3.122a2.232,2.232,0,0,0,2.185-2.186,2.268,2.268,0,0,0-2.185-2.341Z" fill="#fff"/>
      <path id="Path_3149" data-name="Path 3149" d="M23.414,54.791A1.107,1.107,0,0,1,22.165,53.7V43.4A1.207,1.207,0,0,1,23.414,42.3h4.215c8.273,0,8.117,12.644.156,12.644H23.414Zm1.249-10.459v8.117h2.966c5,0,5.151-8.117,0-8.117Z" fill="#fff"/>
      <path id="Path_3150" data-name="Path 3150" d="M38.712,44.488v2.966H43.4A1.343,1.343,0,0,1,44.644,48.7,1.207,1.207,0,0,1,43.4,49.795H38.712v3.9a1.067,1.067,0,0,1-1.093,1.092A1.113,1.113,0,0,1,36.371,53.7V43.4A1.113,1.113,0,0,1,37.619,42.3h6.4A1.113,1.113,0,0,1,45.268,43.4a1.231,1.231,0,0,1-1.249,1.249Z" fill="#fff"/>
      <path id="Path_3151" data-name="Path 3151" d="M52.449,61.659H9.054V64h43.4a2.4,2.4,0,0,0,2.341-2.341V59.318a2.4,2.4,0,0,1-2.341,2.341" fill="#cad1d8"/>
    </g>
  </g>
</svg>
